<svg width="208" height="82" viewBox="0 0 208 82" fill="none" xmlns="http://www.w3.org/2000/svg">
<g id="Group 9 (1) 1">
<path id="Vector" fill-rule="evenodd" clip-rule="evenodd" d="M71.0196 7.91162C70.6719 8.18866 70.8979 8.2448 71.6765 8.07424C72.4979 7.89468 72.8735 8.003 72.8976 8.42658C72.9171 8.76745 73.2662 8.96245 73.687 8.86686C74.2143 8.74685 74.414 8.93989 74.3498 9.50695L74.2581 10.3188L75.3158 9.45193C75.8976 8.9755 76.3708 8.43797 76.3685 8.25817C76.3658 8.0784 76.3555 7.78374 76.3458 7.60435C76.3204 7.13717 71.6528 7.40605 71.0196 7.91162ZM69.4844 10.4291C68.1168 11.4347 65.5859 14.6592 66.1915 14.6247C66.4418 14.6104 66.7629 14.3834 66.9057 14.1202C67.0484 13.857 67.6305 13.4338 68.1995 13.1796C68.7681 12.9258 69.3462 12.3644 69.4841 11.9324C69.6219 11.5005 70.1168 10.7879 70.5836 10.349C71.6676 9.33039 70.9031 9.38616 69.4844 10.4291ZM78.9314 10.8419C78.7969 11.0898 78.8948 11.2807 79.1482 11.2663C79.4014 11.2519 79.598 11.0442 79.5843 10.8047C79.5706 10.5653 79.4733 10.3743 79.3675 10.3803C79.2617 10.3863 79.0656 10.594 78.9314 10.8419ZM76.0765 14.5042C74.6113 16.0315 73.4298 17.4256 73.4516 17.6017C73.4731 17.7774 72.5617 18.2009 71.4254 18.543C70.2897 18.885 69.7038 19.1638 70.1244 19.1629C70.5449 19.1622 70.8983 19.3322 70.9102 19.5401C70.9422 20.1039 67.413 21.2047 65.9404 21.0902L64.6598 20.9907L65.7204 20.4389L66.7808 19.8876L65.39 19.9388C64.6252 19.9676 63.8895 20.1933 63.7551 20.4412C63.6206 20.689 63.756 20.8779 64.055 20.8608C64.3545 20.8439 64.235 21.1293 63.7902 21.4953C62.6754 22.4121 63.4274 22.9254 64.7248 22.133C65.8357 21.4543 66.3784 21.5409 65.9132 22.322C65.583 22.8764 59.6363 25.0468 58.2349 25.1244C57.6959 25.1542 57.265 25.3483 57.2767 25.5555C57.2884 25.7622 55.8975 26.3546 54.1852 26.8709C50.4329 28.0031 47.3335 29.5546 47.72 30.107C47.875 30.3286 47.4892 30.5393 46.8622 30.575C46.2132 30.6119 45.8277 30.4458 45.9668 30.1893C46.3147 29.5476 45.6399 29.6658 43.7701 30.5755C42.7977 31.0484 41.5497 31.3038 40.6639 31.2115C39.8493 31.1265 38.5753 31.3545 37.833 31.7178C37.0907 32.0815 34.7444 32.9087 32.6194 33.5564C30.4943 34.2041 27.4138 35.3593 25.7736 36.1234C22.1414 37.8157 16.5638 39.7253 14.9913 39.8149C14.3557 39.8511 13.9621 39.994 14.1171 40.1324C14.5253 40.4966 17.9717 40.5972 22.9248 40.3898C25.7321 40.2723 27.3128 40.3802 27.4406 40.6987C27.5489 40.9681 27.3822 41.1925 27.0706 41.1972C24.6032 41.2337 23.6522 41.5443 23.8149 42.2605L23.9863 43.015L21.801 42.9869C20.5991 42.9716 19.3855 42.7917 19.104 42.5872C18.5372 42.1754 17.1944 42.6243 17.2281 43.2147C17.2398 43.4205 16.9491 43.4935 16.5822 43.3764C15.6866 43.0898 15.7779 44.3 16.7029 44.9829C17.0959 45.2728 18.3658 45.4703 19.5248 45.4213C20.6838 45.3728 21.564 45.459 21.4802 45.6131C21.2005 46.1312 24.4363 46.2247 25.5425 45.7308C28.3399 44.4804 26.0744 46.7416 22.7142 48.5534C20.0264 50.0023 17.8669 51.5564 15.7122 53.5925C13.3582 55.8169 11.6406 57.039 10.8013 57.0868C10.4478 57.1068 10.1701 57.3232 10.184 57.5669C10.1979 57.8111 9.76244 57.9259 9.21585 57.8226C8.08338 57.6083 2.91443 60.2918 2.95878 61.0705C2.97399 61.3374 3.22574 61.4481 3.5187 61.316C6.82783 59.8261 10.3363 59.5751 8.81545 60.9379L8.0147 61.6553L9.36938 60.9017C11.0539 59.9649 11.1936 59.9579 11.2418 60.8036L11.2807 61.4863L12.5363 60.4801C13.8227 59.4491 15.1071 59.3022 15.4431 60.1473C15.5471 60.4088 15.0532 60.902 14.3459 61.2432C13.0941 61.8473 12.9341 62.8488 14.1792 62.2877C14.5228 62.1333 14.8166 62.223 14.8317 62.4881C14.8469 62.7532 14.4674 62.9924 13.9885 63.0196C13.5096 63.047 13.1303 63.2878 13.1455 63.5556C13.1628 63.8589 13.535 63.9068 14.1355 63.6835C16.2444 62.8987 18.6334 62.356 20.4953 62.2376L22.4536 62.1135L21.4005 62.7963C18.3523 64.7719 16.5816 65.4138 16.0962 64.72C15.7671 64.25 6.65936 64.698 6.68697 65.1826C6.69892 65.3924 7.1479 65.5153 7.68519 65.4555C9.89165 65.2102 11.5404 65.3634 11.3076 65.7928C11.1621 66.061 11.6907 66.2079 12.6127 66.1553C13.4647 66.1068 14.1732 66.263 14.1869 66.5024C14.2005 66.7419 15.1912 66.8819 16.3883 66.8138C17.5855 66.7456 18.5761 66.8857 18.5898 67.1252C18.6035 67.3645 18.37 67.5745 18.0704 67.5914C17.7714 67.6089 16.421 68.7668 15.0698 70.1644C13.7186 71.5626 12.4339 72.7167 12.2145 72.7291C11.9951 72.7417 12.0944 73.0514 12.435 73.4176C12.9374 73.9571 13.546 73.9995 15.6412 73.6407C17.2256 73.3696 19.3336 73.3536 21.0837 73.5991C23.319 73.9123 23.9723 73.8816 24.0867 73.459C24.1676 73.1613 24.5048 72.9027 24.8366 72.8838C25.1727 72.8647 25.352 73.1235 25.2416 73.4682C25.0851 73.9577 25.7747 74.0786 28.5291 74.0471C32.543 74.0011 33.1732 74.3077 31.732 75.6056L30.6995 76.5352L31.7679 76.1198C32.3554 75.8911 34.0114 75.637 35.448 75.5552C36.8847 75.4733 38.8305 75.1315 39.7723 74.7957C43.3054 73.5352 45.0149 73.1087 48.4924 72.6188C50.4583 72.3422 52.0597 71.989 52.0514 71.8343C52.0426 71.6799 53.7707 71.4238 55.8912 71.2659C59.2339 71.0165 66.7563 69.5962 69.0198 68.7868C69.563 68.5925 69.7829 68.7666 69.8202 69.4192C69.8586 70.0943 69.5931 70.3349 68.7573 70.3825C68.0786 70.4211 67.7659 70.6211 67.9571 70.894C68.1297 71.141 67.8655 71.4732 67.3699 71.6338C66.8741 71.7938 66.4838 72.1868 66.502 72.5073C66.5204 72.829 65.8573 73.2577 65.0231 73.4637C64.1914 73.6692 63.4132 74.0175 63.2943 74.2368C62.9608 74.853 64.1589 74.6479 65.9298 73.7868C67.1958 73.1708 67.6082 73.1186 67.901 73.5374C68.1968 73.9598 68.4033 73.9433 68.9301 73.4531C69.2925 73.1157 70.2096 72.7315 70.9686 72.5988C72.2901 72.368 73.619 71.9062 83.7187 68.1681C86.1854 67.2546 88.6937 66.4353 89.2928 66.3465C89.8916 66.2574 92.6102 65.6339 95.3343 64.9604C101.091 63.5372 103.168 63.1292 105.259 63.0128C106.091 62.9663 108.082 62.4957 109.683 61.9668C111.284 61.438 112.71 61.1713 112.852 61.3737C112.993 61.5766 112.902 61.7537 112.648 61.7683C112.395 61.7828 112.208 62.1493 112.232 62.5833C112.279 63.4101 110.59 65.0262 108.09 66.5447C107.278 67.0382 106.437 67.6289 106.222 67.8565C105.291 68.842 107.041 68.0247 112.63 64.8642C119.969 60.7141 125.545 58.8216 122.394 61.5499L121.602 62.2353L122.82 61.8786C124.646 61.343 123.856 62.3301 121.953 62.9621C120.326 63.5024 118.746 65.3517 119.97 65.2819C120.301 65.2632 121.384 64.908 122.377 64.4933L124.181 63.7385L123.959 64.4316C123.708 65.2167 124.696 64.9779 126.928 63.7127C132.332 60.649 143.401 57.5146 148.243 57.6774C149.665 57.7248 150.821 57.6292 150.811 57.4643C150.802 57.2998 152.131 57.1646 153.765 57.1637L156.736 57.1623L157.981 55.9882L159.225 54.8137L162.678 54.5152C167.194 54.1243 171.062 53.2672 172.305 52.3811C173.122 51.7986 173.372 51.7708 173.691 52.2262C174.008 52.6802 174.456 52.6224 176.13 51.913C177.257 51.4347 178.522 51.0251 178.941 51.0026C179.36 50.98 179.695 50.8146 179.686 50.6347C179.676 50.4549 180.357 50.2541 181.201 50.1878C182.042 50.1215 182.958 49.8028 183.234 49.4802C183.639 49.0055 183.444 48.969 182.228 49.2888C180.997 49.6127 180.815 49.5759 181.233 49.0866C181.514 48.7574 182.48 48.4631 183.38 48.4324L185.016 48.3768L183.967 48.0457C183.39 47.8637 182.397 47.7838 181.761 47.8691C181.123 47.9541 180.352 47.8876 180.045 47.7216C179.066 47.1914 179.885 46.5836 181.718 46.479C182.695 46.4234 183.697 46.1035 183.945 45.7679C184.717 44.723 189.366 42.8901 192.535 42.3821C195.676 41.8782 199.316 40.8526 200.589 40.1119C200.992 39.877 201.596 39.6693 201.93 39.6503C202.261 39.6314 202.753 39.3203 203.02 38.9588C203.285 38.5978 203.789 38.3935 204.139 38.505C204.521 38.6274 204.757 38.4387 204.736 38.0305C204.714 37.6573 205.006 37.1555 205.383 36.9153C205.9 36.5857 205.932 36.4035 205.511 36.1751C205.202 36.0088 204.835 36.0883 204.691 36.3523C204.281 37.1067 202.007 37.9981 201.681 37.5313C201.526 37.3091 199.846 37.1056 197.949 37.0791C195.777 37.0492 194.216 36.8021 193.731 36.4121C193.31 36.0719 192.715 35.8077 192.409 35.825C191.19 35.8944 185.766 34.7274 185.748 34.3919C185.737 34.1947 185.025 33.7862 184.167 33.4834C182.594 32.9289 182.019 32.0492 183.187 31.9827C183.535 31.9631 183.958 31.6632 184.131 31.3166C184.333 30.912 185.906 30.4245 188.528 29.9547C194.016 28.9721 198.878 27.2125 198.823 26.2295C198.805 25.927 198.459 26.0553 197.977 26.5444L197.163 27.3714L195.815 26.9009C193.715 26.1679 194.169 25.8388 197.494 25.6846L200.556 25.5427L199.751 25.0532C199.307 24.7842 198.727 24.3998 198.46 24.1986C197.338 23.3538 196.19 23.0741 195.388 23.4504L194.537 23.8499L195.847 23.851L197.157 23.8519L195.658 24.2954C194.834 24.5398 193.953 24.5868 193.699 24.4009C193.447 24.2149 192.747 24.0694 192.147 24.0774C190.271 24.1022 179.33 24.3671 178.3 24.4122C177.761 24.436 177.309 24.2596 177.295 24.02C177.282 23.7805 177.564 23.5679 177.923 23.5475C179.106 23.4801 178.602 21.1028 177.298 20.5962C175.2 19.7806 174.007 20.1931 175.926 21.0704C179.364 22.6421 176.923 24.2684 171.492 24.0244C169.514 23.9355 166.868 23.9299 165.612 24.0116C164.356 24.0936 163.319 24.0137 163.309 23.8339C163.298 23.6542 162.972 23.5255 162.584 23.5477C161.23 23.6248 162.726 22.3507 164.834 21.632C168.93 20.2351 168.997 20.1614 165.883 20.478C162.051 20.868 160.973 20.4254 163.911 19.6688C165.547 19.2473 166.672 19.2237 168.414 19.5744C171.148 20.125 177.022 19.5331 177.491 18.6601C177.657 18.3496 179.105 17.6854 180.709 17.184L183.623 16.272L178.573 16.7995C174.883 17.1847 173.425 17.1904 173.167 16.8217C172.572 15.9703 173.677 15.6125 177.075 15.5566C179.044 15.5239 180.217 15.3458 180.049 15.1051C179.894 14.8837 180.446 14.6689 181.294 14.6206C182.132 14.5728 182.951 14.7228 183.111 14.9538C183.273 15.1848 184.021 15.3388 184.773 15.2959C186.207 15.2143 185.98 14.6301 184.383 14.2913C183.899 14.1884 184.387 14.1422 185.47 14.1888L187.44 14.274L186.373 13.8871C185.73 13.6539 182.179 13.7355 177.431 14.0924L169.557 14.6845L172.903 13.8135C177.331 12.6608 176.316 11.8342 171.403 12.5922C168.766 12.9992 168.006 12.9744 167.356 12.4619C166.7 11.9446 166.562 11.9407 166.591 12.4422C166.632 13.1649 166.883 13.1287 155.111 14.0927C147.629 14.7053 145.803 14.7372 144.991 14.2698C144.062 13.7353 143.246 13.7923 140.145 14.6083C139.593 14.7537 139.237 14.6958 139.353 14.4795C139.471 14.2637 141.276 13.7407 143.364 13.3182C145.452 12.8957 147.544 12.3731 148.013 12.1564C148.481 11.9402 149.732 11.4807 150.793 11.1359C154.579 9.9057 154.864 9.76412 154.828 9.12941C154.777 8.23216 152.225 8.18797 151.437 9.07008C151.097 9.45149 150.691 9.64889 150.534 9.50934C150.378 9.36931 150.261 9.46548 150.276 9.72233C150.291 9.97918 149.912 10.1108 149.435 10.0144C148.955 9.91763 148.271 10.1706 147.907 10.5792C147.544 10.986 146.835 11.3421 146.33 11.3709C145.825 11.3996 144.821 11.6381 144.098 11.9011C143.376 12.1641 141.72 12.6794 140.42 13.0465C139.12 13.4132 137.768 13.8369 137.416 13.988L136.777 14.262L137.384 13.4173L137.991 12.5721L136.538 12.9466C135.739 13.1528 134.816 13.3369 134.487 13.3556C134.158 13.3743 133.904 13.6679 133.924 14.0079C133.947 14.4162 132.947 14.9173 130.974 15.4861C127.486 16.491 126.23 16.6189 128.313 15.7573C129.85 15.1212 130.554 14.0164 129.378 14.0833C128.999 14.1049 128.701 14.3263 128.715 14.5753C128.73 14.8295 127.928 15.0407 126.886 15.0572C125.866 15.0734 123.984 15.3701 122.704 15.7169C120.106 16.4204 119.368 16.2676 121.061 15.3768C121.674 15.054 122.167 14.6255 122.155 14.4244C122.118 13.7696 120.84 14.1114 118.714 15.3458C117.567 16.0117 116.245 16.5782 115.778 16.6049C115.311 16.6315 114.389 16.9604 113.731 17.336C111.552 18.579 110.427 19.0226 108.48 19.4086C105.743 19.951 106.624 19.2859 110.01 18.2532C111.586 17.7726 112.938 17.1492 113.015 16.8679C113.189 16.2247 107.69 18.0443 105.378 19.3949C104.481 19.9186 103.212 20.3778 102.558 20.4149L101.369 20.4827L102.176 19.7589L102.982 19.0352L101.911 19.3927C101.322 19.5892 100.295 20.0675 99.6291 20.4557C98.4928 21.1178 96.5189 21.5172 91.3662 22.1268C90.1733 22.2681 88.294 22.6922 87.19 23.0692C85.5919 23.6147 84.9381 23.6591 83.9819 23.2876L82.7812 22.821L83.507 21.9216C84.3821 20.8361 83.7865 20.7792 82.4646 21.8223C81.3541 22.6983 80.7372 22.4265 81.4977 21.396C82.3055 20.3014 81.7765 20.2329 79.3289 21.1138C78.0892 21.5606 77.1885 22.0275 77.328 22.1521C77.9694 22.7248 76.2436 23.6196 73.2096 24.2882C68.9472 25.227 68.9663 25.3335 72.5862 20.7961C74.2857 18.6661 76.1072 16.1524 76.6339 15.2101C77.1602 14.2677 77.8555 13.3778 78.1786 13.2323C78.7412 12.9788 79.4019 11.6886 78.9561 11.714C78.8382 11.7207 77.5422 12.9764 76.0765 14.5042ZM68.0612 16.3744L67.6029 17.3832L68.4894 16.5007C69.4749 15.5204 69.558 15.3065 68.9393 15.3417C68.7086 15.3548 68.3132 15.8194 68.0612 16.3744ZM141.558 11.9318C141.864 12.0358 142.354 12.0079 142.646 11.8698C142.939 11.7322 142.688 11.6473 142.089 11.6814C141.491 11.7155 141.252 11.8282 141.558 11.9318ZM68.9591 16.9408L68.4031 17.6988L69.3529 17.1215C70.3353 16.524 70.5627 16.1228 69.8975 16.1606C69.6876 16.1726 69.2651 16.5238 68.9591 16.9408ZM63.235 18.5412L62.4261 19.2067L63.1366 19.1662C63.5275 19.1438 63.9643 18.9094 64.1074 18.6448C64.5264 17.872 64.109 17.8224 63.235 18.5412ZM80.6395 21.6633C80.6532 21.9028 80.0266 22.1119 79.2466 22.1279L77.8288 22.1566L79.1157 21.7502C79.8237 21.5263 80.4508 21.3173 80.5089 21.2856C80.5669 21.2539 80.6258 21.424 80.6395 21.6633ZM171.538 16.7865C171.128 16.919 170.345 16.9676 169.797 16.8944C169.25 16.8211 169.585 16.7125 170.543 16.6532C171.5 16.5939 171.948 16.6539 171.538 16.7865ZM57.8586 24.2711C57.7244 24.5189 58.018 24.6988 58.5109 24.6706C59.0036 24.6425 59.3961 24.4237 59.3824 24.1842C59.3687 23.9447 59.0755 23.765 58.7302 23.7847C58.3851 23.8043 57.9931 24.0231 57.8586 24.2711ZM55.2154 25.1497C55.3842 25.2998 55.6454 25.285 55.796 25.1165C55.9463 24.9476 55.8083 24.8245 55.4891 24.8428C55.1701 24.861 55.0469 24.999 55.2154 25.1497ZM60.5452 25.4283C60.4107 25.6761 59.9694 25.8947 59.5642 25.9143L58.8279 25.9493L59.4568 25.4903C60.2777 24.8905 60.8541 24.8577 60.5452 25.4283ZM171.211 18.9526C171.074 19.1055 170.699 19.1424 170.378 19.0344C170.023 18.9155 170.12 18.8065 170.626 18.7565C171.084 18.7117 171.347 18.7998 171.211 18.9526ZM73.3974 24.868C73.4026 24.9621 73.1097 25.1729 72.7462 25.3369C72.3672 25.5074 72.1885 25.4443 72.3267 25.1891C72.5588 24.7606 73.3772 24.5153 73.3974 24.868ZM159.728 20.5771C160.071 20.883 159.503 20.979 157.812 20.901C155.946 20.8156 155.155 20.9781 154.277 21.6278C153.397 22.2789 152.927 22.3746 152.16 22.0602C151.618 21.8381 150.825 21.5664 150.398 21.4561C149.972 21.3458 149.61 21.0262 149.594 20.7455C149.556 20.092 159.009 19.9354 159.728 20.5771ZM70.4984 25.5847C70.2104 25.7208 69.6232 25.7615 69.1932 25.6752C68.7634 25.5887 68.9989 25.4775 69.7167 25.4277C70.4346 25.3782 70.7863 25.4487 70.4984 25.5847ZM169.028 21.0248C168.851 21.3512 169.297 21.3768 170.426 21.1055C172.626 20.5766 172.779 20.3464 170.858 20.4558C169.994 20.505 169.171 20.7613 169.028 21.0248ZM36.1029 33.3715C35.9684 33.6195 35.5265 33.8271 35.1207 33.8337C34.5189 33.8426 34.5398 33.7667 35.2321 33.4212C36.3685 32.8541 36.3838 32.8533 36.1029 33.3715ZM189.658 26.3732C189.671 26.6127 189.487 26.8196 189.248 26.8333C189.008 26.847 188.824 27.058 188.838 27.3017C188.853 27.5578 189.316 27.6034 189.936 27.4103C190.587 27.2069 191.019 27.2609 191.035 27.5478C191.115 28.9539 186.027 30.5121 184.832 29.4466C183.956 28.6641 183.679 28.7389 183.736 29.742C183.805 30.9639 182.996 31.3381 182.217 30.4438L181.549 29.6739L180.999 30.4696C180.33 31.4406 179.474 31.5282 178.308 30.746C177.823 30.4207 177.157 30.1637 176.828 30.1751L176.23 30.1953L176.869 30.8855L177.507 31.5756L176.528 31.1234C175.988 30.8745 175.143 30.6938 174.648 30.7221C174.154 30.7502 173.737 30.5642 173.723 30.3088C173.708 30.0533 174.045 29.9192 174.47 30.0111C174.895 30.103 176.117 29.9815 177.184 29.7404L179.125 29.3026L176.996 28.8553C174.234 28.2745 174.757 27.8333 178.876 27.2694C181.509 26.9084 182.354 26.9407 182.893 27.421C183.785 28.217 185.13 28.1523 184.76 27.3312C184.551 26.8681 184.933 26.6493 186.301 26.4465C187.301 26.2982 188.46 26.123 188.876 26.0574C189.293 25.9918 189.644 26.1337 189.658 26.3732ZM34.5351 36.9182C34.9096 37.4533 30.4674 38.6326 29.9194 38.1435C29.6535 37.9063 30.369 37.5481 31.7976 37.2033C33.0669 36.8969 34.1417 36.6208 34.1857 36.59C34.2298 36.5587 34.3872 36.7064 34.5351 36.9182ZM193.676 27.8913C193.329 28.1438 192.654 28.3623 192.174 28.3761L191.302 28.4017L192.153 27.9782C192.619 27.745 193.295 27.5269 193.652 27.4934L194.304 27.4323L193.676 27.8913ZM36.9762 37.2058C37.0045 37.7016 35.9239 38.1916 34.7062 38.2356L33.7613 38.2698L35.0333 37.5973C36.5871 36.776 36.9477 36.7034 36.9762 37.2058ZM187.824 28.6614C187.689 28.9092 187.775 29.101 188.015 29.0873C188.255 29.0736 188.559 28.8597 188.694 28.6119C188.828 28.3641 188.743 28.1723 188.503 28.186C188.264 28.1997 187.957 28.4136 187.824 28.6614ZM24.186 38.8545C23.7189 39.0877 22.3566 39.3247 21.1589 39.3811L18.9809 39.4842L20.268 39.0776C22.1506 38.483 25.2895 38.3043 24.186 38.8545ZM171.84 31.7554C172.001 31.9865 171.938 32.1867 171.698 32.2002C171.459 32.2139 171.131 32.036 170.969 31.805C170.807 31.5741 170.871 31.3739 171.111 31.3602C171.35 31.3467 171.678 31.5244 171.84 31.7554ZM26.5017 42.9399C26.2137 43.0759 25.6263 43.1169 25.1965 43.0303C24.7667 42.9438 25.0022 42.8326 25.7201 42.7831C26.4379 42.7333 26.7895 42.8038 26.5017 42.9399ZM5.96692 46.3049C6.28796 46.4129 6.66275 46.3758 6.79905 46.2229C6.93535 46.0703 6.67266 45.9822 6.21488 46.027C5.7089 46.0768 5.6116 46.1858 5.96692 46.3049ZM24.5268 48.6729C24.5465 49.0158 22.3278 49.9371 22.0591 49.6974C21.9311 49.5831 22.2845 49.2753 22.8452 49.0131C24.0435 48.4528 24.509 48.3586 24.5268 48.6729ZM193.036 47.3457C193.061 47.7779 193.475 47.9285 194.335 47.8175C195.29 47.6937 195.481 47.5279 195.117 47.1354C194.452 46.4212 192.992 46.5686 193.036 47.3457ZM179.565 48.5413C179.571 48.6471 179.387 48.8655 179.156 49.0272C178.925 49.1888 178.724 49.1133 178.71 48.8599C178.695 48.6065 178.88 48.3877 179.119 48.374C179.358 48.3605 179.559 48.4355 179.565 48.5413ZM28.5544 58.041C28.2767 58.4172 27.8537 58.736 27.6143 58.7497C27.3714 58.7635 27.4024 58.4721 27.6837 58.0906C27.9614 57.7145 28.3844 57.3955 28.6239 57.382C28.8669 57.3681 28.8359 57.6595 28.5544 58.041ZM30.2605 59.1249C30.1812 59.4185 29.5016 59.8559 28.751 60.097C28.0004 60.3376 27.397 60.7249 27.4103 60.9577C27.4235 61.1902 26.6507 61.425 25.693 61.4796C24.7353 61.5341 23.9624 61.7676 23.9755 61.9988C23.9887 62.2295 23.6475 62.6338 23.2173 62.8963L22.4354 63.3741L22.5812 62.2762C22.7616 60.9184 24.5557 59.7996 26.7689 59.6648C27.6785 59.6089 28.7058 59.357 29.0518 59.1045C29.9139 58.475 30.4346 58.4838 30.2605 59.1249ZM30.2392 60.784C30.105 61.0318 29.7991 61.2457 29.5596 61.2594C29.3203 61.2731 29.2342 61.0813 29.3686 60.8335C29.503 60.5856 29.8087 60.3716 30.0482 60.3581C30.2875 60.3444 30.3737 60.536 30.2392 60.784ZM11.9981 63.8611C12.167 64.0114 12.4282 63.9964 12.5789 63.8281C12.7291 63.6592 12.5911 63.5361 12.272 63.5541C11.9529 63.5723 11.8297 63.7104 11.9981 63.8611ZM122.195 63.6996C122.045 63.8681 121.784 63.8829 121.615 63.7327C121.446 63.5819 121.57 63.4438 121.889 63.4258C122.208 63.4076 122.346 63.5307 122.195 63.6996ZM73.2797 68.8146C72.9337 69.0671 72.1603 69.2911 71.5609 69.3118L70.4713 69.3498L71.3207 68.9261C71.7878 68.6931 72.5611 68.4695 73.0393 68.4291L73.9087 68.3556L73.2797 68.8146ZM29.5097 71.8219C29.3994 72.0256 28.94 72.2133 28.4895 72.2391C28.0389 72.2647 27.5605 72.4885 27.426 72.7363C27.0652 73.4024 26.3678 73.3269 26.3274 72.6169C26.3079 72.2777 26.0938 71.9463 25.8516 71.8796C25.6094 71.8134 26.3786 71.6902 27.5608 71.6055C28.7431 71.5206 29.6198 71.6182 29.5097 71.8219ZM14.1096 80.4827C14.1232 80.7222 14.3185 80.9077 14.544 80.8947C14.7695 80.8819 15.0635 80.6687 15.1979 80.4207C15.3323 80.1729 15.1366 79.9875 14.7635 80.0087C14.3904 80.03 14.0959 80.2434 14.1096 80.4827ZM16.6323 80.2007C16.9534 80.3086 17.3282 80.2715 17.4645 80.1187C17.6008 79.966 17.3381 79.8779 16.8803 79.9228C16.3743 79.9725 16.277 80.0816 16.6323 80.2007ZM10.434 81.1288C10.5957 81.3598 11.2542 81.5049 11.8976 81.4516L13.0673 81.3541L12.1754 81.0297C10.9364 80.5788 10.0831 80.6273 10.434 81.1288Z" fill="#FFAF2E"/>
<path id="Vector_2" d="M38.9143 53.9223V34.3641H35.39V30.5218H47.6101V34.3641H44.1144V53.9223H38.9143ZM46.7813 53.9223V30.5218H53.2236C54.8029 30.5218 56.1704 30.6952 57.3259 31.0419C58.4815 31.3885 59.377 32.0146 60.0127 32.9197C60.6674 33.8056 60.9949 35.0672 60.9949 36.7043C60.9949 37.6672 60.9177 38.5243 60.7636 39.2753C60.6095 40.0264 60.3207 40.6814 59.897 41.2399C59.4925 41.7791 58.9052 42.2316 58.1348 42.5976L61.3414 53.9223H55.997L53.4258 43.4355H51.9525V53.9223H46.7813ZM51.9525 40.4599H53.397C54.1288 40.4599 54.6969 40.3346 55.1015 40.0843C55.5059 39.8147 55.7851 39.4391 55.9392 38.9576C56.1125 38.4569 56.1992 37.8598 56.1992 37.1664C56.1992 36.1649 56.0163 35.3849 55.6503 34.8264C55.2844 34.2679 54.6102 33.9885 53.628 33.9885H51.9525V40.4599ZM60.088 53.9223L64.5081 30.5218H70.4014L74.7636 53.9223H69.997L69.217 48.9821H65.7792L64.9703 53.9223H60.088ZM66.2414 45.891H68.7259L67.4837 36.7619L66.2414 45.891ZM74.2374 53.9223V30.5218H80.1596C82.2011 30.5218 83.7901 30.7819 84.9264 31.302C86.0627 31.8027 86.862 32.6019 87.3242 33.6996C87.7865 34.7783 88.0175 36.1842 88.0175 37.9175V46.4111C88.0175 48.1635 87.7865 49.5985 87.3242 50.7155C86.862 51.8134 86.0627 52.6222 84.9264 53.1423C83.8094 53.6622 82.2397 53.9223 80.2175 53.9223H74.2374ZM79.4086 50.3399H80.2175C81.0072 50.3399 81.5752 50.2244 81.922 49.9933C82.2685 49.7621 82.4805 49.4155 82.5574 48.9533C82.6538 48.491 82.702 47.9132 82.702 47.2199V37.022C82.702 36.3287 82.6441 35.7702 82.5286 35.3465C82.4324 34.9228 82.2109 34.6146 81.8641 34.422C81.5176 34.2293 80.9589 34.1331 80.1886 34.1331H79.4086V50.3399ZM88.2758 53.9223V30.5218H98.7914V34.0464H93.447V39.8531H97.5204V43.4355H93.447V50.4266H98.8493V53.9223H88.2758ZM98.3081 53.9223V30.5218H104.75C106.33 30.5218 107.697 30.6952 108.853 31.0419C110.008 31.3885 110.904 32.0146 111.539 32.9197C112.194 33.8056 112.521 35.0672 112.521 36.7043C112.521 37.6672 112.445 38.5243 112.29 39.2753C112.136 40.0264 111.847 40.6814 111.424 41.2399C111.019 41.7791 110.432 42.2316 109.662 42.5976L112.868 53.9223H107.524L104.953 43.4355H103.479V53.9223H98.3081ZM103.479 40.4599H104.924C105.655 40.4599 106.224 40.3346 106.628 40.0843C107.033 39.8147 107.312 39.4391 107.466 38.9576C107.639 38.4569 107.726 37.8598 107.726 37.1664C107.726 36.1649 107.543 35.3849 107.177 34.8264C106.811 34.2679 106.137 33.9885 105.155 33.9885H103.479V40.4599ZM123.455 54.2689C121.992 54.2689 120.769 54.009 119.786 53.4889C118.804 52.9689 118.063 52.1697 117.562 51.091C117.061 49.9933 116.782 48.5777 116.724 46.8443L121.144 46.1799C121.163 47.1813 121.25 47.9904 121.404 48.6065C121.577 49.2229 121.809 49.6659 122.097 49.9355C122.406 50.2051 122.771 50.3399 123.195 50.3399C123.734 50.3399 124.081 50.157 124.235 49.7911C124.409 49.4251 124.495 49.04 124.495 48.6355C124.495 47.6724 124.264 46.8636 123.802 46.2087C123.34 45.5347 122.714 44.8607 121.924 44.1865L119.902 42.4243C119.016 41.6731 118.265 40.8257 117.649 39.8821C117.051 38.919 116.753 37.7346 116.753 36.3287C116.753 34.345 117.34 32.833 118.515 31.7931C119.69 30.7338 121.288 30.2041 123.311 30.2041C124.563 30.2041 125.564 30.416 126.315 30.8397C127.086 31.2634 127.663 31.8219 128.049 32.5152C128.453 33.1893 128.723 33.9116 128.858 34.682C129.012 35.433 129.098 36.1553 129.118 36.8486L124.669 37.3976C124.649 36.7043 124.601 36.1072 124.524 35.6064C124.466 35.0864 124.331 34.6916 124.12 34.422C123.908 34.1331 123.58 33.9885 123.138 33.9885C122.656 33.9885 122.3 34.1909 122.069 34.5953C121.857 34.9998 121.751 35.4042 121.751 35.8086C121.751 36.6753 121.953 37.3878 122.358 37.9465C122.781 38.4857 123.33 39.0538 124.004 39.6509L125.94 41.3554C126.961 42.2221 127.817 43.2043 128.511 44.3022C129.224 45.3999 129.58 46.7576 129.58 48.3755C129.58 49.4732 129.329 50.4747 128.829 51.3799C128.328 52.2659 127.615 52.9689 126.691 53.4889C125.786 54.009 124.707 54.2689 123.455 54.2689ZM129.195 53.9223V30.5218H137.053C138.459 30.5218 139.614 30.7916 140.519 31.3308C141.424 31.8508 142.099 32.6212 142.542 33.642C142.985 34.6435 143.206 35.8664 143.206 37.3109C143.206 39.1212 142.907 40.508 142.31 41.4709C141.713 42.4147 140.904 43.0695 139.884 43.4355C138.863 43.8013 137.717 43.9842 136.446 43.9842H134.366V53.9223H129.195ZM134.366 40.3732H136.099C136.735 40.3732 137.216 40.2577 137.544 40.0264C137.871 39.7954 138.083 39.4487 138.179 38.9864C138.295 38.5243 138.353 37.9368 138.353 37.2242C138.353 36.6271 138.304 36.1072 138.208 35.6642C138.131 35.202 137.929 34.8361 137.601 34.5663C137.274 34.2967 136.764 34.1619 136.07 34.1619H134.366V40.3732ZM140.301 53.9223L144.721 30.5218H150.614L154.977 53.9223H150.21L149.43 48.9821H145.992L145.183 53.9223H140.301ZM146.454 45.891H148.939L147.696 36.7619L146.454 45.891ZM160.786 54.2689C159.014 54.2689 157.608 53.9511 156.568 53.3155C155.547 52.6607 154.825 51.7555 154.401 50.5999C153.978 49.4251 153.766 48.048 153.766 46.4688V38.0332C153.766 36.4154 153.978 35.0286 154.401 33.873C154.825 32.6982 155.547 31.7931 156.568 31.1575C157.608 30.5218 159.014 30.2041 160.786 30.2041C162.519 30.2041 163.867 30.493 164.83 31.0708C165.812 31.6293 166.506 32.419 166.91 33.4398C167.315 34.4605 167.517 35.6354 167.517 36.9641V38.9864H162.461V36.6464C162.461 36.1842 162.432 35.7412 162.375 35.3175C162.336 34.8938 162.201 34.5472 161.97 34.2774C161.739 33.9885 161.344 33.8442 160.786 33.8442C160.247 33.8442 159.842 33.9885 159.572 34.2774C159.322 34.5663 159.158 34.9323 159.081 35.3753C159.024 35.799 158.995 36.2516 158.995 36.7331V47.7398C158.995 48.26 159.033 48.7413 159.11 49.1843C159.207 49.608 159.38 49.9547 159.63 50.2244C159.9 50.4747 160.285 50.5999 160.786 50.5999C161.325 50.5999 161.71 50.4651 161.941 50.1955C162.173 49.9066 162.317 49.5406 162.375 49.0976C162.432 48.6548 162.461 48.2021 162.461 47.7398V45.2844H167.517V47.3066C167.517 48.6355 167.315 49.8295 166.91 50.8888C166.525 51.9289 165.841 52.757 164.859 53.3733C163.896 53.9704 162.538 54.2689 160.786 54.2689ZM167.473 53.9223V30.5218H177.989V34.0464H172.644V39.8531H176.718V43.4355H172.644V50.4266H178.047V53.9223H167.473Z" fill="#191919"/>
<g id="Mask group">
<mask id="mask0_123_96" style="mask-type:luminance" maskUnits="userSpaceOnUse" x="31" y="26" width="151" height="32">
<g id="Group">
<path id="Vector_3" d="M181.748 26.5289H31.6248V57.8872H181.748V26.5289Z" fill="white"/>
<path id="Vector_4" d="M38.9143 53.9223V34.3641H35.39V30.5218H47.6101V34.3641H44.1144V53.9223H38.9143ZM46.7813 53.9223V30.5218H53.2236C54.8029 30.5218 56.1704 30.6952 57.3259 31.0419C58.4815 31.3885 59.377 32.0146 60.0127 32.9197C60.6674 33.8056 60.9949 35.0672 60.9949 36.7043C60.9949 37.6672 60.9177 38.5243 60.7636 39.2753C60.6095 40.0264 60.3207 40.6814 59.897 41.2399C59.4925 41.7791 58.9052 42.2316 58.1348 42.5976L61.3414 53.9223H55.997L53.4258 43.4355H51.9525V53.9223H46.7813ZM51.9525 40.4599H53.397C54.1288 40.4599 54.6969 40.3346 55.1015 40.0843C55.5059 39.8147 55.7851 39.4391 55.9392 38.9576C56.1125 38.4569 56.1992 37.8598 56.1992 37.1664C56.1992 36.1649 56.0163 35.3849 55.6503 34.8264C55.2844 34.2679 54.6102 33.9885 53.628 33.9885H51.9525V40.4599ZM60.088 53.9223L64.5081 30.5218H70.4014L74.7636 53.9223H69.997L69.217 48.9821H65.7792L64.9703 53.9223H60.088ZM66.2414 45.891H68.7259L67.4837 36.7619L66.2414 45.891ZM74.2374 53.9223V30.5218H80.1596C82.2011 30.5218 83.7901 30.7819 84.9264 31.302C86.0627 31.8027 86.862 32.6019 87.3242 33.6996C87.7865 34.7783 88.0175 36.1842 88.0175 37.9175V46.4111C88.0175 48.1635 87.7865 49.5985 87.3242 50.7155C86.862 51.8134 86.0627 52.6222 84.9264 53.1423C83.8094 53.6622 82.2397 53.9223 80.2175 53.9223H74.2374ZM79.4086 50.3399H80.2175C81.0072 50.3399 81.5752 50.2244 81.922 49.9933C82.2685 49.7621 82.4805 49.4155 82.5574 48.9533C82.6538 48.491 82.702 47.9132 82.702 47.2199V37.022C82.702 36.3287 82.6441 35.7702 82.5286 35.3465C82.4324 34.9228 82.2109 34.6146 81.8641 34.422C81.5176 34.2293 80.9589 34.1331 80.1886 34.1331H79.4086V50.3399ZM88.2758 53.9223V30.5218H98.7914V34.0464H93.447V39.8531H97.5204V43.4355H93.447V50.4266H98.8493V53.9223H88.2758ZM98.3081 53.9223V30.5218H104.75C106.33 30.5218 107.697 30.6952 108.853 31.0419C110.008 31.3885 110.904 32.0146 111.539 32.9197C112.194 33.8056 112.521 35.0672 112.521 36.7043C112.521 37.6672 112.445 38.5243 112.29 39.2753C112.136 40.0264 111.847 40.6814 111.424 41.2399C111.019 41.7791 110.432 42.2316 109.662 42.5976L112.868 53.9223H107.524L104.953 43.4355H103.479V53.9223H98.3081ZM103.479 40.4599H104.924C105.655 40.4599 106.224 40.3346 106.628 40.0843C107.033 39.8147 107.312 39.4391 107.466 38.9576C107.639 38.4569 107.726 37.8598 107.726 37.1664C107.726 36.1649 107.543 35.3849 107.177 34.8264C106.811 34.2679 106.137 33.9885 105.155 33.9885H103.479V40.4599ZM123.455 54.2689C121.992 54.2689 120.769 54.009 119.786 53.4889C118.804 52.9689 118.063 52.1697 117.562 51.091C117.061 49.9933 116.782 48.5777 116.724 46.8443L121.144 46.1799C121.163 47.1813 121.25 47.9904 121.404 48.6065C121.577 49.2229 121.809 49.6659 122.097 49.9355C122.406 50.2051 122.771 50.3399 123.195 50.3399C123.734 50.3399 124.081 50.157 124.235 49.7911C124.409 49.4251 124.495 49.04 124.495 48.6355C124.495 47.6724 124.264 46.8636 123.802 46.2087C123.34 45.5347 122.714 44.8607 121.924 44.1865L119.902 42.4243C119.016 41.6731 118.265 40.8257 117.649 39.8821C117.051 38.919 116.753 37.7346 116.753 36.3287C116.753 34.345 117.34 32.833 118.515 31.7931C119.69 30.7338 121.288 30.2041 123.311 30.2041C124.563 30.2041 125.564 30.416 126.315 30.8397C127.086 31.2634 127.663 31.8219 128.049 32.5152C128.453 33.1893 128.723 33.9116 128.858 34.682C129.012 35.433 129.098 36.1553 129.118 36.8486L124.669 37.3976C124.649 36.7043 124.601 36.1072 124.524 35.6064C124.466 35.0864 124.331 34.6916 124.12 34.422C123.908 34.1331 123.58 33.9885 123.138 33.9885C122.656 33.9885 122.3 34.1909 122.069 34.5953C121.857 34.9998 121.751 35.4042 121.751 35.8086C121.751 36.6753 121.953 37.3878 122.358 37.9465C122.781 38.4857 123.33 39.0538 124.004 39.6509L125.94 41.3554C126.961 42.2221 127.817 43.2043 128.511 44.3022C129.224 45.3999 129.58 46.7576 129.58 48.3755C129.58 49.4732 129.329 50.4747 128.829 51.3799C128.328 52.2659 127.615 52.9689 126.691 53.4889C125.786 54.009 124.707 54.2689 123.455 54.2689ZM129.195 53.9223V30.5218H137.053C138.459 30.5218 139.614 30.7916 140.519 31.3308C141.424 31.8508 142.099 32.6212 142.542 33.642C142.985 34.6435 143.206 35.8664 143.206 37.3109C143.206 39.1212 142.907 40.508 142.31 41.4709C141.713 42.4147 140.904 43.0695 139.884 43.4355C138.863 43.8013 137.717 43.9842 136.446 43.9842H134.366V53.9223H129.195ZM134.366 40.3732H136.099C136.735 40.3732 137.216 40.2577 137.544 40.0264C137.871 39.7954 138.083 39.4487 138.179 38.9864C138.295 38.5243 138.353 37.9368 138.353 37.2242C138.353 36.6271 138.304 36.1072 138.208 35.6642C138.131 35.202 137.929 34.8361 137.601 34.5663C137.274 34.2967 136.764 34.1619 136.07 34.1619H134.366V40.3732ZM140.301 53.9223L144.721 30.5218H150.614L154.977 53.9223H150.21L149.43 48.9821H145.992L145.183 53.9223H140.301ZM146.454 45.891H148.939L147.696 36.7619L146.454 45.891ZM160.786 54.2689C159.014 54.2689 157.608 53.9511 156.568 53.3155C155.547 52.6607 154.825 51.7555 154.401 50.5999C153.978 49.4251 153.766 48.048 153.766 46.4688V38.0332C153.766 36.4154 153.978 35.0286 154.401 33.873C154.825 32.6982 155.547 31.7931 156.568 31.1575C157.608 30.5218 159.014 30.2041 160.786 30.2041C162.519 30.2041 163.867 30.493 164.83 31.0708C165.812 31.6293 166.506 32.419 166.91 33.4398C167.315 34.4605 167.517 35.6354 167.517 36.9641V38.9864H162.461V36.6464C162.461 36.1842 162.432 35.7412 162.375 35.3175C162.336 34.8938 162.201 34.5472 161.97 34.2774C161.739 33.9885 161.344 33.8442 160.786 33.8442C160.247 33.8442 159.842 33.9885 159.572 34.2774C159.322 34.5663 159.158 34.9323 159.081 35.3753C159.024 35.799 158.995 36.2516 158.995 36.7331V47.7398C158.995 48.26 159.033 48.7413 159.11 49.1843C159.207 49.608 159.38 49.9547 159.63 50.2244C159.9 50.4747 160.285 50.5999 160.786 50.5999C161.325 50.5999 161.71 50.4651 161.941 50.1955C162.173 49.9066 162.317 49.5406 162.375 49.0976C162.432 48.6548 162.461 48.2021 162.461 47.7398V45.2844H167.517V47.3066C167.517 48.6355 167.315 49.8295 166.91 50.8888C166.525 51.9289 165.841 52.757 164.859 53.3733C163.896 53.9704 162.538 54.2689 160.786 54.2689ZM167.473 53.9223V30.5218H177.989V34.0464H172.644V39.8531H176.718V43.4355H172.644V50.4266H178.047V53.9223H167.473Z" fill="black"/>
</g>
</mask>
<g mask="url(#mask0_123_96)">
<path id="Vector_5" d="M38.9144 53.9224H35.3034C35.3034 55.9167 36.9201 57.5334 38.9144 57.5334V53.9224ZM38.9144 34.3642H42.5257C42.5257 32.3699 40.9089 30.7532 38.9144 30.7532V34.3642ZM35.3901 34.3642H31.7788C31.7788 36.3587 33.3956 37.9755 35.3901 37.9755V34.3642ZM35.3901 30.5219V26.9109C33.3956 26.9109 31.7788 28.5276 31.7788 30.5219H35.3901ZM47.6102 30.5219H51.2213C51.2213 28.5276 49.6045 26.9109 47.6102 26.9109V30.5219ZM47.6102 34.3642V37.9755C49.6045 37.9755 51.2213 36.3587 51.2213 34.3642H47.6102ZM44.1145 34.3642V30.7532C42.1202 30.7532 40.5034 32.3699 40.5034 34.3642H44.1145ZM44.1145 53.9224V57.5334C46.109 57.5334 47.7257 55.9167 47.7257 53.9224H44.1145ZM42.5257 53.9224V34.3642H35.3034V53.9224H42.5257ZM38.9144 30.7532H35.3901V37.9755H38.9144V30.7532ZM39.0011 34.3642V30.5219H31.7788V34.3642H39.0011ZM35.3901 34.1332H47.6102V26.9109H35.3901V34.1332ZM43.999 30.5219V34.3642H51.2213V30.5219H43.999ZM47.6102 30.7532H44.1145V37.9755H47.6102V30.7532ZM40.5034 34.3642V53.9224H47.7257V34.3642H40.5034ZM44.1145 50.3111H38.9144V57.5334H44.1145V50.3111ZM46.7814 53.9224H43.1703C43.1703 55.9167 44.7871 57.5334 46.7814 57.5334V53.9224ZM46.7814 30.5219V26.9109C44.7871 26.9109 43.1703 28.5276 43.1703 30.5219H46.7814ZM60.0128 32.9198L57.0573 34.995C57.0741 35.019 57.0912 35.0427 57.1087 35.0662L60.0128 32.9198ZM59.8971 41.24L57.0202 39.0573C57.0161 39.0627 57.0121 39.068 57.0081 39.0732L59.8971 41.24ZM58.1349 42.5977L56.5855 39.3358C54.9938 40.0918 54.1803 41.8862 54.6604 43.5816L58.1349 42.5977ZM61.3415 53.9224V57.5334C62.4733 57.5334 63.5395 57.0031 64.222 56.1003C64.9045 55.1976 65.1245 54.0273 64.8162 52.9384L61.3415 53.9224ZM55.9971 53.9224L52.4898 54.7822C52.8858 56.3975 54.3339 57.5334 55.9971 57.5334V53.9224ZM53.4259 43.4356L56.9332 42.5756C56.5372 40.9603 55.0892 39.8243 53.4259 39.8243V43.4356ZM51.9526 43.4356V39.8243C49.9581 39.8243 48.3414 41.4411 48.3414 43.4356H51.9526ZM51.9526 53.9224V57.5334C53.9469 57.5334 55.5637 55.9167 55.5637 53.9224H51.9526ZM51.9526 40.46H48.3414C48.3414 42.4543 49.9581 44.071 51.9526 44.071V40.46ZM55.1016 40.0844L57.0022 43.1548C57.0368 43.1335 57.0709 43.1115 57.1046 43.089L55.1016 40.0844ZM55.9393 38.9577L52.5268 37.7765C52.5176 37.8032 52.5086 37.83 52.4999 37.8571L55.9393 38.9577ZM51.9526 33.9886V30.3776C49.9581 30.3776 48.3414 31.9943 48.3414 33.9886H51.9526ZM50.3926 53.9224V30.5219H43.1703V53.9224H50.3926ZM46.7814 34.1332H53.2237V26.9109H46.7814V34.1332ZM53.2237 34.1332C54.5535 34.1332 55.5548 34.2808 56.2883 34.5008L58.3636 27.5831C56.7861 27.1098 55.0524 26.9109 53.2237 26.9109V34.1332ZM56.2883 34.5008C56.7425 34.6371 56.9306 34.8146 57.0573 34.995L62.9682 30.8447C61.8236 29.2148 60.2206 28.1403 58.3636 27.5831L56.2883 34.5008ZM57.1087 35.0662C57.1294 35.0943 57.3837 35.4823 57.3837 36.7044H64.606C64.606 34.6522 64.2056 32.5171 62.9166 30.7733L57.1087 35.0662ZM57.3837 36.7044C57.3837 37.4824 57.3208 38.089 57.2264 38.5498L64.3013 40.0011C64.515 38.9596 64.606 37.8522 64.606 36.7044H57.3837ZM57.2264 38.5498C57.1703 38.8223 57.0878 38.9681 57.0202 39.0573L62.7741 43.4224C63.5537 42.3946 64.049 41.2308 64.3013 40.0011L57.2264 38.5498ZM57.0081 39.0732C57.0359 39.0364 56.9642 39.1559 56.5855 39.3358L59.6842 45.8595C60.8465 45.3075 61.9496 44.5219 62.786 43.4066L57.0081 39.0732ZM54.6604 43.5816L57.8671 54.9062L64.8162 52.9384L61.6095 41.6139L54.6604 43.5816ZM61.3415 50.3111H55.9971V57.5334H61.3415V50.3111ZM59.5044 53.0624L56.9332 42.5756L49.9187 44.2954L52.4898 54.7822L59.5044 53.0624ZM53.4259 39.8243H51.9526V47.0466H53.4259V39.8243ZM48.3414 43.4356V53.9224H55.5637V43.4356H48.3414ZM51.9526 50.3111H46.7814V57.5334H51.9526V50.3111ZM51.9526 44.071H53.3971V36.8487H51.9526V44.071ZM53.3971 44.071C54.4669 44.071 55.7976 43.9005 57.0022 43.1548L53.2008 37.014C53.4122 36.8831 53.567 36.8457 53.595 36.8395C53.6216 36.8336 53.5654 36.8487 53.3971 36.8487V44.071ZM57.1046 43.089C58.2185 42.3465 58.986 41.2852 59.3786 40.0583L52.4999 37.8571C52.5344 37.7495 52.6005 37.6017 52.7166 37.4456C52.8335 37.2881 52.9694 37.1657 53.0985 37.0798L57.1046 43.089ZM59.3517 40.139C59.6902 39.1615 59.8104 38.1449 59.8104 37.1665H52.5881C52.5881 37.5748 52.5351 37.7523 52.5268 37.7765L59.3517 40.139ZM59.8104 37.1665C59.8104 35.7912 59.57 34.2195 58.671 32.8475L52.6299 36.8055C52.5405 36.6692 52.5326 36.5961 52.5464 36.6552C52.561 36.7175 52.5881 36.8777 52.5881 37.1665H59.8104ZM58.671 32.8475C57.3597 30.846 55.2141 30.3776 53.6281 30.3776V37.5999C53.7997 37.5999 53.7126 37.6273 53.4883 37.5343C53.2203 37.4233 52.8811 37.1892 52.6299 36.8055L58.671 32.8475ZM53.6281 30.3776H51.9526V37.5999H53.6281V30.3776ZM48.3414 33.9886V40.46H55.5637V33.9886H48.3414ZM60.0881 53.9224L56.5397 53.2522C56.3401 54.3084 56.6216 55.3989 57.3077 56.2267C57.9938 57.0544 59.0129 57.5334 60.0881 57.5334V53.9224ZM64.5082 30.5219V26.9109C62.7723 26.9109 61.2819 28.1459 60.9596 29.8517L64.5082 30.5219ZM70.4015 30.5219L73.9515 29.8602C73.6329 28.1506 72.1407 26.9109 70.4015 26.9109V30.5219ZM74.7637 53.9224V57.5334C75.8375 57.5334 76.8554 57.0557 77.5415 56.2299C78.2276 55.4042 78.5105 54.316 78.3139 53.2606L74.7637 53.9224ZM69.9971 53.9224L66.4302 54.4856C66.7072 56.2407 68.2202 57.5334 69.9971 57.5334V53.9224ZM69.2171 48.9822L72.784 48.419C72.5069 46.6639 70.9941 45.3711 69.2171 45.3711V48.9822ZM65.7793 48.9822V45.3711C64.01 45.3711 62.5014 46.6529 62.2156 48.3987L65.7793 48.9822ZM64.9704 53.9224V57.5334C66.7395 57.5334 68.2483 56.2517 68.5341 54.5059L64.9704 53.9224ZM66.2415 45.8911L62.6633 45.4041C62.5227 46.4373 62.8355 47.4808 63.5213 48.2662C64.207 49.0516 65.1988 49.5023 66.2415 49.5023V45.8911ZM68.726 45.8911V49.5023C69.7686 49.5023 70.7603 49.0516 71.4461 48.2662C72.1318 47.4808 72.4447 46.4373 72.3041 45.4041L68.726 45.8911ZM67.4838 36.762L71.0619 36.2753C70.8184 34.4855 69.2899 33.151 67.4838 33.151C65.6774 33.151 64.1492 34.4855 63.9055 36.2753L67.4838 36.762ZM63.6364 54.5926L68.0565 31.1923L60.9596 29.8517L56.5397 53.2522L63.6364 54.5926ZM64.5082 34.1332H70.4015V26.9109H64.5082V34.1332ZM66.8516 31.1839L71.2138 54.5842L78.3139 53.2606L73.9515 29.8602L66.8516 31.1839ZM74.7637 50.3111H69.9971V57.5334H74.7637V50.3111ZM73.564 53.3592L72.784 48.419L65.65 49.5454L66.4302 54.4856L73.564 53.3592ZM69.2171 45.3711H65.7793V52.5934H69.2171V45.3711ZM62.2156 48.3987L61.4066 53.3388L68.5341 54.5059L69.3429 49.5658L62.2156 48.3987ZM64.9704 50.3111H60.0881V57.5334H64.9704V50.3111ZM66.2415 49.5023H68.726V42.28H66.2415V49.5023ZM72.3041 45.4041L71.0619 36.2753L63.9055 37.249L65.1478 46.378L72.3041 45.4041ZM63.9055 36.2753L62.6633 45.4041L69.8196 46.378L71.0619 37.249L63.9055 36.2753ZM74.2375 53.9224H70.6263C70.6263 55.9167 72.243 57.5334 74.2375 57.5334V53.9224ZM74.2375 30.5219V26.9109C72.243 26.9109 70.6263 28.5276 70.6263 30.5219H74.2375ZM84.9265 31.3021L83.4239 34.5857C83.4394 34.5927 83.4547 34.5998 83.4704 34.6066L84.9265 31.3021ZM87.3244 33.6997L83.9962 35.1011C83.9991 35.1082 84.0022 35.1154 84.0052 35.1224L87.3244 33.6997ZM87.3244 50.7156L90.6525 52.1169C90.6553 52.1101 90.6582 52.1033 90.6611 52.0964L87.3244 50.7156ZM84.9265 53.1424L83.4239 49.8586C83.4166 49.8619 83.4096 49.8653 83.4026 49.8685L84.9265 53.1424ZM79.4087 50.34H75.7975C75.7975 52.3345 77.4142 53.9512 79.4087 53.9512V50.34ZM82.5575 48.9534L79.0223 48.2168C79.0124 48.2642 79.0036 48.312 78.9955 48.3597L82.5575 48.9534ZM82.5287 35.3466L79.0074 36.1468C79.0187 36.1971 79.0312 36.247 79.0449 36.2967L82.5287 35.3466ZM79.4087 34.1332V30.5219C77.4142 30.5219 75.7975 32.1389 75.7975 34.1332H79.4087ZM77.8486 53.9224V30.5219H70.6263V53.9224H77.8486ZM74.2375 34.1332H80.1597V26.9109H74.2375V34.1332ZM80.1597 34.1332C81.9718 34.1332 82.9656 34.3759 83.4239 34.5857L86.4292 28.0183C84.6149 27.188 82.4308 26.9109 80.1597 26.9109V34.1332ZM83.4704 34.6066C83.8021 34.7528 83.9085 34.8926 83.9962 35.1011L90.6525 32.2985C89.8159 30.3114 88.3237 28.8527 86.3827 27.9974L83.4704 34.6066ZM84.0052 35.1224C84.2057 35.5901 84.4066 36.4605 84.4066 37.9176H91.6289C91.6289 35.9082 91.3676 33.9667 90.6435 32.2773L84.0052 35.1224ZM84.4066 37.9176V46.4112H91.6289V37.9176H84.4066ZM84.4066 46.4112C84.4066 47.8854 84.2065 48.8058 83.9876 49.3349L90.6611 52.0964C91.3667 50.3913 91.6289 48.4421 91.6289 46.4112H84.4066ZM83.9962 49.3143C83.9036 49.534 83.7818 49.6948 83.4239 49.8586L86.4292 56.426C88.344 55.5498 89.8206 54.0927 90.6525 52.1169L83.9962 49.3143ZM83.4026 49.8685C82.9737 50.0682 82.01 50.3111 80.2176 50.3111V57.5334C82.4696 57.5334 84.6454 57.2565 86.4505 56.4161L83.4026 49.8685ZM80.2176 50.3111H74.2375V57.5334H80.2176V50.3111ZM79.4087 53.9512H80.2176V46.7289H79.4087V53.9512ZM80.2176 53.9512C81.1789 53.9512 82.6552 53.8445 83.9252 52.998L79.9189 46.9888C80.0938 46.8722 80.2435 46.8051 80.3408 46.7682C80.4382 46.7313 80.5014 46.7177 80.5162 46.7147C80.5365 46.7105 80.4509 46.7289 80.2176 46.7289V53.9512ZM83.9252 52.998C85.21 52.1415 85.9012 50.8585 86.1196 49.547L78.9955 48.3597C79.0216 48.2035 79.0901 47.9544 79.2595 47.6771C79.4343 47.3909 79.6672 47.1566 79.9189 46.9888L83.9252 52.998ZM86.0929 49.6899C86.2571 48.9015 86.3131 48.0571 86.3131 47.22H79.0908C79.0908 47.7695 79.0506 48.0807 79.0223 48.2168L86.0929 49.6899ZM86.3131 47.22V37.0221H79.0908V47.22H86.3131ZM86.3131 37.0221C86.3131 36.17 86.2468 35.2547 86.0127 34.3963L79.0449 36.2967C79.0389 36.2753 79.0528 36.32 79.0667 36.4548C79.0804 36.586 79.0908 36.772 79.0908 37.0221H86.3131ZM86.05 34.5462C85.7507 33.2287 84.9539 32.0075 83.6179 31.2653L80.1105 37.5788C79.84 37.4285 79.572 37.203 79.3581 36.9053C79.149 36.6144 79.0508 36.338 79.0074 36.1468L86.05 34.5462ZM83.6179 31.2653C82.4326 30.6068 81.0956 30.5219 80.1887 30.5219V37.7442C80.3073 37.7442 80.3987 37.748 80.4657 37.7529C80.5335 37.7579 80.567 37.7632 80.5719 37.7641C80.5776 37.7651 80.5387 37.7588 80.4666 37.7359C80.3954 37.7132 80.2687 37.6667 80.1105 37.5788L83.6179 31.2653ZM80.1887 30.5219H79.4087V37.7442H80.1887V30.5219ZM75.7975 34.1332V50.34H83.0198V34.1332H75.7975ZM88.2759 53.9224H84.6647C84.6647 55.9167 86.2814 57.5334 88.2759 57.5334V53.9224ZM88.2759 30.5219V26.9109C86.2814 26.9109 84.6647 28.5276 84.6647 30.5219H88.2759ZM98.7915 30.5219H102.403C102.403 28.5276 100.786 26.9109 98.7915 26.9109V30.5219ZM98.7915 34.0465V37.6577C100.786 37.6577 102.403 36.0408 102.403 34.0465H98.7915ZM93.4471 34.0465V30.4354C91.4526 30.4354 89.8359 32.0522 89.8359 34.0465H93.4471ZM93.4471 39.8532H89.8359C89.8359 41.8477 91.4526 43.4644 93.4471 43.4644V39.8532ZM97.5205 39.8532H101.132C101.132 37.8589 99.5148 36.2421 97.5205 36.2421V39.8532ZM97.5205 43.4356V47.0466C99.5148 47.0466 101.132 45.4299 101.132 43.4356H97.5205ZM93.4471 43.4356V39.8243C91.4526 39.8243 89.8359 41.4411 89.8359 43.4356H93.4471ZM93.4471 50.4267H89.8359C89.8359 52.4212 91.4526 54.0379 93.4471 54.0379V50.4267ZM98.8494 50.4267H102.46C102.46 48.4324 100.844 46.8156 98.8494 46.8156V50.4267ZM98.8494 53.9224V57.5334C100.844 57.5334 102.46 55.9167 102.46 53.9224H98.8494ZM91.887 53.9224V30.5219H84.6647V53.9224H91.887ZM88.2759 34.1332H98.7915V26.9109H88.2759V34.1332ZM95.1805 30.5219V34.0465H102.403V30.5219H95.1805ZM98.7915 30.4354H93.4471V37.6577H98.7915V30.4354ZM89.8359 34.0465V39.8532H97.0582V34.0465H89.8359ZM93.4471 43.4644H97.5205V36.2421H93.4471V43.4644ZM93.9092 39.8532V43.4356H101.132V39.8532H93.9092ZM97.5205 39.8243H93.4471V47.0466H97.5205V39.8243ZM89.8359 43.4356V50.4267H97.0582V43.4356H89.8359ZM93.4471 54.0379H98.8494V46.8156H93.4471V54.0379ZM95.2382 50.4267V53.9224H102.46V50.4267H95.2382ZM98.8494 50.3111H88.2759V57.5334H98.8494V50.3111ZM98.3082 53.9224H94.697C94.697 55.9167 96.3137 57.5334 98.3082 57.5334V53.9224ZM98.3082 30.5219V26.9109C96.3137 26.9109 94.697 28.5276 94.697 30.5219H98.3082ZM111.539 32.9198L108.584 34.995C108.601 35.019 108.618 35.0427 108.635 35.0662L111.539 32.9198ZM111.424 41.24L108.547 39.0573C108.543 39.0627 108.539 39.068 108.535 39.0732L111.424 41.24ZM109.662 42.5977L108.112 39.3358C106.521 40.0918 105.707 41.8862 106.187 43.5816L109.662 42.5977ZM112.868 53.9224V57.5334C114 57.5334 115.066 57.0031 115.749 56.1003C116.431 55.1976 116.651 54.0273 116.343 52.9384L112.868 53.9224ZM107.524 53.9224L104.016 54.7822C104.413 56.3975 105.861 57.5334 107.524 57.5334V53.9224ZM104.953 43.4356L108.46 42.5756C108.064 40.9603 106.616 39.8243 104.953 39.8243V43.4356ZM103.479 43.4356V39.8243C101.485 39.8243 99.8682 41.4411 99.8682 43.4356H103.479ZM103.479 53.9224V57.5334C105.474 57.5334 107.09 55.9167 107.09 53.9224H103.479ZM103.479 40.46H99.8682C99.8682 42.4543 101.485 44.071 103.479 44.071V40.46ZM106.628 40.0844L108.529 43.1548C108.563 43.1335 108.598 43.1115 108.631 43.089L106.628 40.0844ZM107.466 38.9577L104.054 37.7765C104.044 37.8032 104.035 37.83 104.027 37.8571L107.466 38.9577ZM103.479 33.9886V30.3776C101.485 30.3776 99.8682 31.9943 99.8682 33.9886H103.479ZM101.919 53.9224V30.5219H94.697V53.9224H101.919ZM98.3082 34.1332H104.751V26.9109H98.3082V34.1332ZM104.751 34.1332C106.08 34.1332 107.081 34.2808 107.815 34.5008L109.89 27.5831C108.313 27.1098 106.579 26.9109 104.751 26.9109V34.1332ZM107.815 34.5008C108.269 34.6371 108.457 34.8146 108.584 34.995L114.495 30.8447C113.35 29.2148 111.747 28.1403 109.89 27.5831L107.815 34.5008ZM108.635 35.0662C108.656 35.0943 108.911 35.4823 108.911 36.7044H116.133C116.133 34.6522 115.732 32.5171 114.443 30.7733L108.635 35.0662ZM108.911 36.7044C108.911 37.4824 108.848 38.089 108.753 38.5498L115.828 40.0011C116.042 38.9596 116.133 37.8522 116.133 36.7044H108.911ZM108.753 38.5498C108.697 38.8223 108.615 38.9681 108.547 39.0573L114.301 43.4224C115.081 42.3946 115.576 41.2308 115.828 40.0011L108.753 38.5498ZM108.535 39.0732C108.563 39.0364 108.491 39.1559 108.112 39.3358L111.211 45.8595C112.373 45.3075 113.476 44.5219 114.313 43.4066L108.535 39.0732ZM106.187 43.5816L109.394 54.9062L116.343 52.9384L113.136 41.6139L106.187 43.5816ZM112.868 50.3111H107.524V57.5334H112.868V50.3111ZM111.031 53.0624L108.46 42.5756L101.445 44.2954L104.016 54.7822L111.031 53.0624ZM104.953 39.8243H103.479V47.0466H104.953V39.8243ZM99.8682 43.4356V53.9224H107.09V43.4356H99.8682ZM103.479 50.3111H98.3082V57.5334H103.479V50.3111ZM103.479 44.071H104.924V36.8487H103.479V44.071ZM104.924 44.071C105.994 44.071 107.324 43.9005 108.529 43.1548L104.727 37.014C104.939 36.8831 105.094 36.8457 105.122 36.8395C105.148 36.8336 105.092 36.8487 104.924 36.8487V44.071ZM108.631 43.089C109.745 42.3465 110.513 41.2852 110.905 40.0583L104.027 37.8571C104.061 37.7495 104.127 37.6017 104.243 37.4456C104.36 37.2881 104.496 37.1657 104.625 37.0798L108.631 43.089ZM110.879 40.139C111.217 39.1615 111.337 38.1449 111.337 37.1665H104.115C104.115 37.5748 104.062 37.7523 104.054 37.7765L110.879 40.139ZM111.337 37.1665C111.337 35.7912 111.097 34.2195 110.198 32.8475L104.157 36.8055C104.067 36.6692 104.059 36.5961 104.073 36.6552C104.088 36.7175 104.115 36.8777 104.115 37.1665H111.337ZM110.198 32.8475C108.886 30.846 106.741 30.3776 105.155 30.3776V37.5999C105.326 37.5999 105.239 37.6273 105.015 37.5343C104.747 37.4233 104.408 37.1892 104.157 36.8055L110.198 32.8475ZM105.155 30.3776H103.479V37.5999H105.155V30.3776ZM99.8682 33.9886V40.46H107.09V33.9886H99.8682ZM117.562 51.0911L114.276 52.5898C114.28 52.5972 114.283 52.6046 114.286 52.6118L117.562 51.0911ZM116.724 46.8444L116.187 43.2734C114.375 43.5459 113.054 45.1329 113.115 46.9648L116.724 46.8444ZM121.144 46.18L124.755 46.1106C124.735 45.0714 124.268 44.0912 123.474 43.4208C122.68 42.7502 121.635 42.4545 120.607 42.6089L121.144 46.18ZM121.404 48.6066L117.901 49.4825C117.909 49.5166 117.918 49.5506 117.928 49.5843L121.404 48.6066ZM122.098 49.9356L119.634 52.5756C119.662 52.6019 119.691 52.6279 119.72 52.6533L122.098 49.9356ZM124.235 49.7912L120.972 48.2453C120.949 48.293 120.928 48.3412 120.907 48.3898L124.235 49.7912ZM123.802 46.2088L120.824 48.2511C120.833 48.2646 120.842 48.2781 120.852 48.2914L123.802 46.2088ZM121.924 44.1866L119.552 46.9091C119.561 46.9172 119.57 46.9252 119.58 46.9331L121.924 44.1866ZM119.902 42.4244L122.274 39.702C122.262 39.6912 122.25 39.6805 122.237 39.6699L119.902 42.4244ZM117.649 39.8822L114.58 41.7849C114.594 41.8091 114.61 41.8329 114.625 41.8567L117.649 39.8822ZM118.515 31.7932L120.909 34.497C120.917 34.4898 120.925 34.4824 120.933 34.4751L118.515 31.7932ZM126.315 30.8398L124.541 33.985C124.552 33.9913 124.564 33.9976 124.575 34.004L126.315 30.8398ZM128.049 32.5153L124.892 34.2691C124.912 34.3042 124.932 34.339 124.952 34.3732L128.049 32.5153ZM128.858 34.6821L125.3 35.3046C125.307 35.339 125.313 35.3734 125.32 35.4077L128.858 34.6821ZM129.118 36.8487L129.56 40.4328C131.408 40.2048 132.779 38.6095 132.727 36.7485L129.118 36.8487ZM124.669 37.3977L121.059 37.4979C121.087 38.5149 121.543 39.4727 122.314 40.1359C123.086 40.7991 124.101 41.1062 125.111 40.9817L124.669 37.3977ZM124.524 35.6065L120.935 36.0053C120.941 36.0556 120.947 36.1057 120.955 36.1556L124.524 35.6065ZM124.12 34.4221L121.208 36.5575C121.231 36.5897 121.256 36.6216 121.28 36.6532L124.12 34.4221ZM122.069 34.5954L118.933 32.8037C118.911 32.8421 118.89 32.8806 118.87 32.9198L122.069 34.5954ZM122.358 37.9466L119.433 40.0646C119.46 40.1028 119.489 40.1404 119.518 40.1776L122.358 37.9466ZM124.004 39.651L121.61 42.3543C121.612 42.3566 121.615 42.3589 121.618 42.3611L124.004 39.651ZM125.94 41.3555L123.553 44.0656C123.57 44.08 123.586 44.0943 123.603 44.1083L125.94 41.3555ZM128.511 44.3023L125.458 46.2306C125.466 46.2432 125.474 46.2558 125.482 46.2685L128.511 44.3023ZM128.829 51.38L131.973 53.157C131.978 53.1474 131.983 53.1377 131.989 53.1282L128.829 51.38ZM126.691 53.489L124.921 50.3416C124.911 50.347 124.902 50.3522 124.892 50.3576L126.691 53.489ZM123.455 50.6579C122.401 50.6579 121.799 50.4685 121.476 50.2974L118.097 56.6805C119.738 57.5495 121.583 57.8802 123.455 57.8802V50.6579ZM121.476 50.2974C121.241 50.1729 121.031 49.9871 120.837 49.5704L114.286 52.6118C115.095 54.3522 116.367 55.765 118.097 56.6805L121.476 50.2974ZM120.847 49.5926C120.611 49.0741 120.382 48.1728 120.333 46.7242L113.115 46.9648C113.182 48.9827 113.511 50.9127 114.276 52.5898L120.847 49.5926ZM117.261 50.4155L121.681 49.751L120.607 42.6089L116.187 43.2734L117.261 50.4155ZM117.534 46.2494C117.555 47.3862 117.654 48.4963 117.901 49.4825L124.908 47.7309C124.846 47.4844 124.771 46.9767 124.755 46.1106L117.534 46.2494ZM117.928 49.5843C118.18 50.4813 118.649 51.6561 119.634 52.5756L124.562 47.2957C124.783 47.5026 124.883 47.6812 124.909 47.7308C124.936 47.7816 124.917 47.7607 124.881 47.6289L117.928 49.5843ZM119.72 52.6533C120.711 53.5205 121.93 53.9512 123.195 53.9512V46.7289C123.373 46.7289 123.602 46.7583 123.851 46.8504C124.103 46.9432 124.314 47.0767 124.476 47.2179L119.72 52.6533ZM123.195 53.9512C123.843 53.9512 124.694 53.8456 125.545 53.3965C126.467 52.9099 127.167 52.1339 127.563 51.1924L120.907 48.3898C121.149 47.8142 121.599 47.3128 122.174 47.0092C122.679 46.743 123.087 46.7289 123.195 46.7289V53.9512ZM127.499 51.337C127.901 50.4885 128.106 49.5753 128.106 48.6356H120.884C120.884 48.5776 120.891 48.5089 120.907 48.4351C120.924 48.3613 120.947 48.2968 120.972 48.2453L127.499 51.337ZM128.106 48.6356C128.106 47.0802 127.725 45.5049 126.752 44.1264L120.852 48.2914C120.837 48.2711 120.84 48.2649 120.85 48.2988C120.861 48.3379 120.884 48.4421 120.884 48.6356H128.106ZM126.78 44.1667C126.098 43.1717 125.238 42.2676 124.269 41.4402L119.58 46.9331C120.19 47.4539 120.582 47.898 120.824 48.2511L126.78 44.1667ZM124.297 41.4642L122.274 39.702L117.53 45.1469L119.552 46.9091L124.297 41.4642ZM122.237 39.6699C121.609 39.1373 121.092 38.5507 120.672 37.9075L114.625 41.8567C115.438 43.1011 116.423 44.2093 117.567 45.1788L122.237 39.6699ZM120.718 37.9792C120.551 37.7109 120.364 37.2238 120.364 36.3288H113.142C113.142 38.2456 113.552 40.1273 114.58 41.7849L120.718 37.9792ZM120.364 36.3288C120.364 35.0858 120.704 34.6787 120.909 34.497L116.122 29.0892C113.977 30.9876 113.142 33.6042 113.142 36.3288H120.364ZM120.933 34.4751C121.276 34.1662 121.925 33.8154 123.311 33.8154V26.5931C120.652 26.5931 118.104 27.3016 116.097 29.1112L120.933 34.4751ZM123.311 33.8154C124.204 33.8154 124.522 33.974 124.541 33.985L128.09 27.6945C126.607 26.8581 124.922 26.5931 123.311 26.5931V33.8154ZM124.575 34.004C124.817 34.1368 124.872 34.233 124.892 34.2691L131.206 30.7616C130.455 29.4111 129.355 28.3901 128.056 27.6757L124.575 34.004ZM124.952 34.3732C125.13 34.6693 125.243 34.973 125.3 35.3046L132.415 34.0596C132.203 32.8504 131.777 31.7096 131.145 30.6575L124.952 34.3732ZM125.32 35.4077C125.436 35.9741 125.495 36.4865 125.508 36.9491L132.727 36.7485C132.702 35.8244 132.587 34.8923 132.395 33.9564L125.32 35.4077ZM128.675 33.2647L124.227 33.8136L125.111 40.9817L129.56 40.4328L128.675 33.2647ZM128.278 37.2975C128.256 36.5043 128.2 35.7496 128.093 35.0573L120.955 36.1556C121.003 36.4649 121.042 36.9042 121.059 37.4979L128.278 37.2975ZM128.113 35.2078C128.017 34.3444 127.751 33.1986 126.959 32.1909L121.28 36.6532C121.087 36.4075 120.999 36.194 120.962 36.0873C120.927 35.9822 120.928 35.944 120.935 36.0053L128.113 35.2078ZM127.032 32.2866C125.978 30.8494 124.427 30.3776 123.138 30.3776V37.5999C122.973 37.5999 122.649 37.5734 122.258 37.4009C121.842 37.2176 121.475 36.9226 121.208 36.5575L127.032 32.2866ZM123.138 30.3776C121.414 30.3776 119.834 31.2282 118.933 32.8037L125.204 36.387C125.043 36.669 124.751 37.0201 124.292 37.2809C123.838 37.5384 123.412 37.5999 123.138 37.5999V30.3776ZM118.87 32.9198C118.422 33.7738 118.14 34.749 118.14 35.8087H125.362C125.362 35.9256 125.346 36.0307 125.324 36.117C125.302 36.2016 125.277 36.2535 125.267 36.2709L118.87 32.9198ZM118.14 35.8087C118.14 37.2389 118.479 38.7475 119.433 40.0646L125.282 35.8285C125.312 35.8698 125.335 35.9092 125.351 35.9433C125.367 35.9772 125.375 36.0001 125.376 36.0073C125.38 36.0208 125.362 35.9638 125.362 35.8087H118.14ZM119.518 40.1776C120.11 40.9305 120.821 41.6554 121.61 42.3543L126.399 36.9477C125.84 36.4526 125.453 36.041 125.197 35.7155L119.518 40.1776ZM121.618 42.3611L123.553 44.0656L128.326 38.6453L126.391 36.9408L121.618 42.3611ZM123.603 44.1083C124.353 44.7454 124.966 45.4519 125.458 46.2306L131.564 42.3739C130.669 40.957 129.568 39.6989 128.277 38.6028L123.603 44.1083ZM125.482 46.2685C125.734 46.6561 125.969 47.2905 125.969 48.3756H133.191C133.191 46.225 132.713 44.1438 131.54 42.3361L125.482 46.2685ZM125.969 48.3756C125.969 48.9006 125.855 49.2947 125.669 49.6321L131.989 53.1282C132.804 51.655 133.191 50.0462 133.191 48.3756H125.969ZM125.685 49.6032C125.522 49.8907 125.296 50.1302 124.921 50.3416L128.461 56.6363C129.935 55.8077 131.133 54.6413 131.973 53.157L125.685 49.6032ZM124.892 50.3576C124.634 50.506 124.202 50.6579 123.455 50.6579V57.8802C125.213 57.8802 126.938 57.512 128.49 56.6203L124.892 50.3576ZM129.195 53.9224H125.584C125.584 55.9167 127.2 57.5334 129.195 57.5334V53.9224ZM129.195 30.5219V26.9109C127.2 26.9109 125.584 28.5276 125.584 30.5219H129.195ZM140.519 31.3309L138.671 34.4332C138.688 34.443 138.704 34.4527 138.721 34.4621L140.519 31.3309ZM142.542 33.6421L139.229 35.0797C139.232 35.0874 139.236 35.095 139.239 35.1028L142.542 33.6421ZM142.31 41.471L145.362 43.4017C145.368 43.3925 145.374 43.3831 145.38 43.3739L142.31 41.471ZM134.366 43.9843V40.3733C132.372 40.3733 130.755 41.99 130.755 43.9843H134.366ZM134.366 53.9224V57.5334C136.36 57.5334 137.977 55.9167 137.977 53.9224H134.366ZM134.366 40.3733H130.755C130.755 42.3676 132.372 43.9843 134.366 43.9843V40.3733ZM138.179 38.9865L134.676 38.1108C134.664 38.1569 134.654 38.2034 134.644 38.2501L138.179 38.9865ZM138.208 35.6643L134.646 36.258C134.656 36.316 134.667 36.3738 134.679 36.4313L138.208 35.6643ZM134.366 34.162V30.5509C132.372 30.5509 130.755 32.1677 130.755 34.162H134.366ZM132.806 53.9224V30.5219H125.584V53.9224H132.806ZM129.195 34.1332H137.053V26.9109H129.195V34.1332ZM137.053 34.1332C138.019 34.1332 138.482 34.3204 138.671 34.4332L142.368 28.2286C140.747 27.2628 138.898 26.9109 137.053 26.9109V34.1332ZM138.721 34.4621C138.906 34.5689 139.074 34.7216 139.229 35.0797L145.854 32.2045C145.124 30.521 143.943 29.133 142.318 28.1996L138.721 34.4621ZM139.239 35.1028C139.425 35.5225 139.595 36.2169 139.595 37.311H146.817C146.817 35.5162 146.545 33.7646 145.844 32.1814L139.239 35.1028ZM139.595 37.311C139.595 38.814 139.331 39.423 139.241 39.5682L145.38 43.3739C146.484 41.5932 146.817 39.4286 146.817 37.311H139.595ZM139.259 39.5403C139.078 39.8258 138.904 39.9505 138.665 40.0363L141.102 46.8349C142.905 46.1886 144.349 45.0037 145.362 43.4017L139.259 39.5403ZM138.665 40.0363C138.096 40.2401 137.372 40.3733 136.446 40.3733V47.5956C138.063 47.5956 139.63 47.3627 141.102 46.8349L138.665 40.0363ZM136.446 40.3733H134.366V47.5956H136.446V40.3733ZM130.755 43.9843V53.9224H137.977V43.9843H130.755ZM134.366 50.3111H129.195V57.5334H134.366V50.3111ZM134.366 43.9843H136.099V36.762H134.366V43.9843ZM136.099 43.9843C137.077 43.9843 138.427 43.8232 139.626 42.9767L135.461 37.0763C135.748 36.8738 135.991 36.7999 136.094 36.7752C136.195 36.751 136.209 36.762 136.099 36.762V43.9843ZM139.626 42.9767C140.831 42.1261 141.467 40.9107 141.715 39.7231L134.644 38.2501C134.667 38.1404 134.725 37.9423 134.867 37.7102C135.014 37.4694 135.217 37.2488 135.461 37.0763L139.626 42.9767ZM141.683 39.8624C141.896 39.0101 141.964 38.1018 141.964 37.2243H134.742C134.742 37.772 134.694 38.0385 134.676 38.1108L141.683 39.8624ZM141.964 37.2243C141.964 36.4454 141.902 35.6569 141.737 34.8971L134.679 36.4313C134.707 36.5575 134.742 36.8091 134.742 37.2243H141.964ZM141.77 35.0707C141.566 33.8452 140.97 32.6624 139.897 31.779L135.306 37.3541C135.123 37.2038 134.96 37.0111 134.838 36.7898C134.719 36.5735 134.667 36.3827 134.646 36.258L141.77 35.0707ZM139.897 31.779C138.624 30.7304 137.108 30.5509 136.07 30.5509V37.7733C136.197 37.7733 136.174 37.7869 136.051 37.7545C135.923 37.7206 135.63 37.6206 135.306 37.3541L139.897 31.779ZM136.07 30.5509H134.366V37.7733H136.07V30.5509ZM130.755 34.162V40.3733H137.977V34.162H130.755ZM140.301 53.9224L136.753 53.2522C136.553 54.3084 136.835 55.3989 137.521 56.2267C138.207 57.0544 139.226 57.5334 140.301 57.5334V53.9224ZM144.721 30.5219V26.9109C142.985 26.9109 141.495 28.1459 141.173 29.8517L144.721 30.5219ZM150.614 30.5219L154.164 29.8602C153.846 28.1506 152.354 26.9109 150.614 26.9109V30.5219ZM154.977 53.9224V57.5334C156.05 57.5334 157.068 57.0557 157.754 56.2299C158.44 55.4042 158.723 54.316 158.527 53.2606L154.977 53.9224ZM150.21 53.9224L146.643 54.4856C146.92 56.2407 148.433 57.5334 150.21 57.5334V53.9224ZM149.43 48.9822L152.997 48.419C152.72 46.6639 151.207 45.3711 149.43 45.3711V48.9822ZM145.992 48.9822V45.3711C144.223 45.3711 142.714 46.6529 142.428 48.3987L145.992 48.9822ZM145.183 53.9224V57.5334C146.952 57.5334 148.461 56.2517 148.747 54.5059L145.183 53.9224ZM146.454 45.8911L142.876 45.4041C142.736 46.4373 143.048 47.4808 143.734 48.2662C144.42 49.0516 145.412 49.5023 146.454 49.5023V45.8911ZM148.939 45.8911V49.5023C149.982 49.5023 150.973 49.0516 151.659 48.2662C152.345 47.4808 152.658 46.4373 152.517 45.4041L148.939 45.8911ZM147.697 36.762L151.275 36.2753C151.031 34.4855 149.503 33.151 147.697 33.151C145.89 33.151 144.362 34.4855 144.118 36.2753L147.697 36.762ZM143.849 54.5926L148.269 31.1923L141.173 29.8517L136.753 53.2522L143.849 54.5926ZM144.721 34.1332H150.614V26.9109H144.721V34.1332ZM147.065 31.1839L151.427 54.5842L158.527 53.2606L154.164 29.8602L147.065 31.1839ZM154.977 50.3111H150.21V57.5334H154.977V50.3111ZM153.777 53.3592L152.997 48.419L145.863 49.5454L146.643 54.4856L153.777 53.3592ZM149.43 45.3711H145.992V52.5934H149.43V45.3711ZM142.428 48.3987L141.62 53.3388L148.747 54.5059L149.556 49.5658L142.428 48.3987ZM145.183 50.3111H140.301V57.5334H145.183V50.3111ZM146.454 49.5023H148.939V42.28H146.454V49.5023ZM152.517 45.4041L151.275 36.2753L144.118 37.249L145.361 46.378L152.517 45.4041ZM144.118 36.2753L142.876 45.4041L150.033 46.378L151.275 37.249L144.118 36.2753ZM156.568 53.3156L154.618 56.3552C154.64 56.3694 154.663 56.3833 154.685 56.397L156.568 53.3156ZM154.401 50.6L151.004 51.8252C151.007 51.8313 151.009 51.8372 151.011 51.8432L154.401 50.6ZM154.401 33.8731L157.792 35.1163C157.794 35.1103 157.796 35.1044 157.798 35.0983L154.401 33.8731ZM156.568 31.1576L154.685 28.0762C154.676 28.0814 154.668 28.0868 154.659 28.092L156.568 31.1576ZM164.83 31.0709L162.973 34.1674C162.997 34.182 163.021 34.1961 163.045 34.2101L164.83 31.0709ZM167.517 38.9865V42.5977C169.511 42.5977 171.128 40.981 171.128 38.9865H167.517ZM162.462 38.9865H158.85C158.85 40.981 160.467 42.5977 162.462 42.5977V38.9865ZM162.375 35.3176L158.778 35.6445C158.783 35.6984 158.789 35.7521 158.797 35.8056L162.375 35.3176ZM161.97 34.2775L159.151 36.5335C159.176 36.5654 159.202 36.5968 159.229 36.6278L161.97 34.2775ZM159.572 34.2775L156.933 31.8137C156.902 31.846 156.873 31.879 156.844 31.9125L159.572 34.2775ZM159.081 35.3754L155.524 34.7567C155.516 34.8002 155.509 34.8438 155.503 34.8876L159.081 35.3754ZM159.11 49.1844L155.552 49.8033C155.563 49.864 155.575 49.9246 155.589 49.9848L159.11 49.1844ZM159.63 50.2245L156.984 52.6818C157.045 52.747 157.108 52.8101 157.173 52.8708L159.63 50.2245ZM161.941 50.1956L164.683 52.5457C164.71 52.5147 164.736 52.4833 164.761 52.4514L161.941 50.1956ZM162.462 45.2845V41.6732C160.467 41.6732 158.85 43.29 158.85 45.2845H162.462ZM167.517 45.2845H171.128C171.128 43.29 169.511 41.6732 167.517 41.6732V45.2845ZM166.91 50.8889L163.537 49.6009C163.532 49.6121 163.528 49.6234 163.524 49.6348L166.91 50.8889ZM164.859 53.3734L166.762 56.4426C166.768 56.4392 166.773 56.4357 166.779 56.4323L164.859 53.3734ZM160.786 50.6579C159.395 50.6579 158.723 50.4004 158.451 50.2344L154.685 56.397C156.493 57.5021 158.634 57.8802 160.786 57.8802V50.6579ZM158.518 50.2762C158.171 50.0536 157.949 49.7844 157.792 49.3569L151.011 51.8432C151.702 53.7268 152.923 55.2679 154.618 56.3552L158.518 50.2762ZM157.798 49.3749C157.548 48.6814 157.377 47.7362 157.377 46.4689H150.155C150.155 48.3603 150.407 50.1691 151.004 51.8252L157.798 49.3749ZM157.377 46.4689V38.0333H150.155V46.4689H157.377ZM157.377 38.0333C157.377 36.7136 157.552 35.7705 157.792 35.1163L151.011 32.63C150.403 34.2869 150.155 36.1172 150.155 38.0333H157.377ZM157.798 35.0983C157.958 34.6549 158.173 34.4123 158.477 34.2231L154.659 28.092C152.922 29.1741 151.692 30.7418 151.004 32.648L157.798 35.0983ZM158.451 34.239C158.723 34.0728 159.395 33.8154 160.786 33.8154V26.5931C158.634 26.5931 156.493 26.9712 154.685 28.0762L158.451 34.239ZM160.786 33.8154C162.191 33.8154 162.797 34.062 162.973 34.1674L166.688 27.9743C164.938 26.9242 162.847 26.5931 160.786 26.5931V33.8154ZM163.045 34.2101C163.335 34.375 163.461 34.5374 163.553 34.7701L170.268 32.1097C169.551 30.3006 168.29 28.8839 166.615 27.9318L163.045 34.2101ZM163.553 34.7701C163.759 35.2886 163.906 35.9975 163.906 36.9642H171.128C171.128 35.2732 170.871 33.6327 170.268 32.1097L163.553 34.7701ZM163.906 36.9642V38.9865H171.128V36.9642H163.906ZM167.517 35.3754H162.462V42.5977H167.517V35.3754ZM166.073 38.9865V36.6465H158.85V38.9865H166.073ZM166.073 36.6465C166.073 36.0341 166.034 35.4275 165.953 34.8297L158.797 35.8056C158.831 36.0552 158.85 36.3346 158.85 36.6465H166.073ZM165.971 34.9907C165.879 33.9715 165.522 32.8718 164.712 31.9275L159.229 36.6278C158.881 36.2226 158.794 35.8164 158.778 35.6445L165.971 34.9907ZM164.79 32.0217C163.582 30.512 161.87 30.233 160.786 30.233V37.4553C160.773 37.4553 160.567 37.4562 160.26 37.344C159.924 37.2209 159.501 36.9722 159.151 36.5335L164.79 32.0217ZM160.786 30.233C159.624 30.233 158.106 30.5562 156.933 31.8137L162.213 36.7415C161.578 37.4213 160.87 37.4553 160.786 37.4553V30.233ZM156.844 31.9125C156.093 32.7788 155.693 33.7823 155.524 34.7567L162.639 35.9941C162.624 36.0826 162.552 36.3542 162.302 36.6427L156.844 31.9125ZM155.503 34.8876C155.421 35.4915 155.384 36.1086 155.384 36.7332H162.606C162.606 36.3949 162.626 36.1068 162.659 35.8633L155.503 34.8876ZM155.384 36.7332V47.74H162.606V36.7332H155.384ZM155.384 47.74C155.384 48.436 155.435 49.1271 155.552 49.8033L162.668 48.5657C162.632 48.3559 162.606 48.084 162.606 47.74H155.384ZM155.589 49.9848C155.8 50.9154 156.229 51.8684 156.984 52.6818L162.276 47.7673C162.531 48.0413 162.613 48.301 162.632 48.3842L155.589 49.9848ZM157.173 52.8708C158.32 53.9361 159.707 54.2113 160.786 54.2113V46.989C160.863 46.989 161.479 47.0137 162.088 47.5783L157.173 52.8708ZM160.786 54.2113C161.828 54.2113 163.474 53.9561 164.683 52.5457L159.2 47.8456C159.557 47.4291 159.969 47.2015 160.286 47.0904C160.578 46.9884 160.772 46.989 160.786 46.989V54.2113ZM164.761 52.4514C165.483 51.5494 165.83 50.5261 165.956 49.5649L158.794 48.6308C158.804 48.5554 158.862 48.264 159.122 47.9398L164.761 52.4514ZM165.956 49.5649C166.034 48.9618 166.073 48.3531 166.073 47.74H158.85C158.85 48.0514 158.831 48.3478 158.794 48.6308L165.956 49.5649ZM166.073 47.74V45.2845H158.85V47.74H166.073ZM162.462 48.8955H167.517V41.6732H162.462V48.8955ZM163.906 45.2845V47.3067H171.128V45.2845H163.906ZM163.906 47.3067C163.906 48.2696 163.76 49.017 163.537 49.6009L170.284 52.1771C170.87 50.6424 171.128 49.0015 171.128 47.3067H163.906ZM163.524 49.6348C163.429 49.8921 163.281 50.1008 162.94 50.3146L166.779 56.4323C168.403 55.4133 169.622 53.9658 170.297 52.1431L163.524 49.6348ZM162.956 50.3043C162.797 50.4032 162.205 50.6579 160.786 50.6579V57.8802C162.872 57.8802 164.996 57.5376 166.762 56.4426L162.956 50.3043ZM167.473 53.9224H163.862C163.862 55.9167 165.479 57.5334 167.473 57.5334V53.9224ZM167.473 30.5219V26.9109C165.479 26.9109 163.862 28.5276 163.862 30.5219H167.473ZM177.989 30.5219H181.599C181.599 28.5276 179.983 26.9109 177.989 26.9109V30.5219ZM177.989 34.0465V37.6577C179.983 37.6577 181.599 36.0408 181.599 34.0465H177.989ZM172.644 34.0465V30.4354C170.65 30.4354 169.033 32.0522 169.033 34.0465H172.644ZM172.644 39.8532H169.033C169.033 41.8477 170.65 43.4644 172.644 43.4644V39.8532ZM176.718 39.8532H180.329C180.329 37.8589 178.712 36.2421 176.718 36.2421V39.8532ZM176.718 43.4356V47.0466C178.712 47.0466 180.329 45.4299 180.329 43.4356H176.718ZM172.644 43.4356V39.8243C170.65 39.8243 169.033 41.4411 169.033 43.4356H172.644ZM172.644 50.4267H169.033C169.033 52.4212 170.65 54.0379 172.644 54.0379V50.4267ZM178.047 50.4267H181.659C181.659 48.4324 180.041 46.8156 178.047 46.8156V50.4267ZM178.047 53.9224V57.5334C180.041 57.5334 181.659 55.9167 181.659 53.9224H178.047ZM171.084 53.9224V30.5219H163.862V53.9224H171.084ZM167.473 34.1332H177.989V26.9109H167.473V34.1332ZM174.378 30.5219V34.0465H181.599V30.5219H174.378ZM177.989 30.4354H172.644V37.6577H177.989V30.4354ZM169.033 34.0465V39.8532H176.255V34.0465H169.033ZM172.644 43.4644H176.718V36.2421H172.644V43.4644ZM173.106 39.8532V43.4356H180.329V39.8532H173.106ZM176.718 39.8243H172.644V47.0466H176.718V39.8243ZM169.033 43.4356V50.4267H176.255V43.4356H169.033ZM172.644 54.0379H178.047V46.8156H172.644V54.0379ZM174.435 50.4267V53.9224H181.659V50.4267H174.435ZM178.047 50.3111H167.473V57.5334H178.047V50.3111Z" fill="#FFAF2E"/>
</g>
</g>
</g>
</svg>
