<?xml version="1.0" encoding="utf-8"?>
<!-- Generator: Adobe Illustrator 27.0.0, SVG Export Plug-In . SVG Version: 6.00 Build 0)  -->
<svg version="1.1" id="Шар_1" xmlns="http://www.w3.org/2000/svg" xmlns:xlink="http://www.w3.org/1999/xlink" x="0px" y="0px"
	 viewBox="0 0 649 100" style="enable-background:new 0 0 649 100;" xml:space="preserve">
<style type="text/css">
	.st0{clip-path:url(#SVGID_00000100348208228129203600000011993278134998171070_);}
	.st1{fill-rule:evenodd;clip-rule:evenodd;fill:#191919;}
	.st2{fill-rule:evenodd;clip-rule:evenodd;fill:#FFAF2E;}
</style>
<g>
	<defs>
		<rect id="SVGID_1_" width="648.9" height="100"/>
	</defs>
	<clipPath id="SVGID_00000139254975699719408940000011611054332409669545_">
		<use xlink:href="#SVGID_1_"  style="overflow:visible;"/>
	</clipPath>
	<g style="clip-path:url(#SVGID_00000139254975699719408940000011611054332409669545_);">
		<path class="st1" d="M625.5,22.8h-8.7v27.1c0,3.7,0.7,7.2,2.1,10.5l0,0l0,0c1.4,3.2,3.4,6,5.8,8.5l0,0l0,0
			c2.5,2.4,5.3,4.3,8.5,5.8l0,0l0,0c3.3,1.4,6.8,2.1,10.5,2.1h4.3v-8.7h-4.3c-2.5,0-4.9-0.5-7.1-1.4c-2.2-1-4.1-2.3-5.8-3.9
			c-1.7-1.7-3-3.6-3.9-5.8c-1-2.2-1.4-4.6-1.4-7.1V22.8z"/>
		<path class="st1" d="M606.2,30.8c2.5,2.4,4.4,5.3,5.8,8.6c1.4,3.3,2.2,6.8,2.2,10.5c0,0.8,0,1.5-0.1,2.3v24.7h-8.6v-7.2
			c-2.3,2.1-4.9,3.8-7.8,5.1l0,0l0,0c-3.3,1.4-6.8,2.1-10.5,2.1c-3.7,0-7.2-0.7-10.5-2.1l0,0l0,0c-3.2-1.4-6-3.4-8.5-5.8l0,0l0,0
			c-2.4-2.5-4.3-5.3-5.8-8.5l0,0l0,0c-1.4-3.3-2.1-6.8-2.1-10.5c0-3.7,0.7-7.2,2.1-10.5l0,0l0,0c1.4-3.3,3.4-6.1,5.8-8.5
			c2.5-2.5,5.3-4.4,8.5-5.8c3.3-1.5,6.8-2.2,10.6-2.2c3.7,0,7.2,0.7,10.5,2.2C600.9,26.4,603.8,28.3,606.2,30.8z M605.5,49.9
			c0,2.5-0.5,4.9-1.4,7.1c-1,2.2-2.3,4.1-3.9,5.8c-1.7,1.7-3.6,3-5.9,3.9c-2.2,1-4.6,1.4-7.1,1.4c-2.5,0-4.9-0.5-7.1-1.4
			c-2.2-1-4.1-2.3-5.8-3.9c-1.7-1.7-3-3.6-3.9-5.8c-1-2.2-1.4-4.6-1.4-7.1c0-2.5,0.5-4.9,1.4-7.1c1-2.3,2.3-4.2,3.9-5.9
			c1.7-1.7,3.6-3,5.8-3.9c2.2-1,4.6-1.4,7.1-1.4c2.5,0,4.9,0.5,7.1,1.4c2.3,1,4.2,2.3,5.9,3.9c1.7,1.7,3,3.6,3.9,5.9
			C605,45,605.5,47.4,605.5,49.9z"/>
		<path class="st1" d="M534.6,49.7V22.6h-8.7v27.1c0,3.7,0.7,7.3,2.2,10.6c1.4,3.2,3.4,6.1,5.8,8.6l0,0l0,0c2.5,2.4,5.4,4.3,8.6,5.8
			c3.3,1.5,6.8,2.2,10.6,2.2h4.3v-8.7h-4.3c-2.6,0-5-0.5-7.2-1.4c-2.2-1-4.2-2.3-5.9-3.9c-1.7-1.7-3-3.7-3.9-5.9
			C535.1,54.7,534.6,52.3,534.6,49.7z M539.7,45.4v8.8h17.7v-8.8H539.7z"/>
		<path class="st1" d="M523.2,22.7h-8.4v54.1h8.4V22.7z"/>
		<path class="st1" d="M466.6,99.7v-30c1.6,1.5,3.5,2.9,5.5,4l0,0l0,0c4,2.2,8.3,3.3,13,3.3c3.7,0,7.3-0.7,10.6-2.2
			c3.3-1.4,6.1-3.4,8.5-5.8c2.5-2.5,4.4-5.4,5.8-8.6c1.4-3.3,2.2-6.8,2.2-10.5c0-3.7-0.7-7.2-2.2-10.5c-1.4-3.3-3.3-6.2-5.8-8.7
			c-2.4-2.5-5.3-4.4-8.6-5.8c-3.3-1.4-6.8-2.2-10.5-2.2c-3.5,0-6.9,0.7-10.1,2c-3.1,1.2-5.9,3-8.4,5.3c-2.4,2.2-4.4,4.9-5.9,7.9
			c-1.5,3-2.4,6.3-2.8,9.7l0,0.1v52.1H466.6z M502,42.7c1,2.2,1.4,4.6,1.4,7.1s-0.5,4.9-1.4,7.1c-1,2.3-2.3,4.2-3.9,5.9
			c-1.7,1.7-3.6,3-5.9,3.9c-2.2,1-4.6,1.4-7.1,1.4c-2.6,0-5-0.5-7.2-1.4c-2.2-1-4.2-2.3-5.9-4c-1.6-1.7-3-3.6-3.9-5.9
			c-1-2.2-1.4-4.6-1.4-7.1s0.5-4.9,1.4-7.1c1-2.3,2.3-4.2,3.9-5.9c1.7-1.7,3.7-3,5.9-4c2.2-1,4.6-1.4,7.2-1.4c2.5,0,4.9,0.5,7.1,1.4
			c2.3,1,4.2,2.3,5.9,3.9C499.7,38.4,501.1,40.4,502,42.7z"/>
		<path class="st1" d="M447.2,30.8c2.5,2.4,4.4,5.3,5.8,8.6c1.5,3.3,2.2,6.8,2.2,10.5c0,0.8,0,1.5-0.1,2.3v24.7h-8.6v-7.2
			c-2.3,2.1-4.9,3.8-7.8,5.1l0,0l0,0c-3.3,1.4-6.8,2.1-10.5,2.1c-3.7,0-7.2-0.7-10.5-2.1l0,0l0,0c-3.2-1.4-6-3.4-8.5-5.8l0,0l0,0
			c-2.4-2.5-4.3-5.3-5.8-8.5l0,0l0,0c-1.4-3.3-2.1-6.8-2.1-10.5c0-3.7,0.7-7.2,2.1-10.5l0,0l0,0c1.4-3.3,3.4-6.1,5.8-8.5
			c2.5-2.5,5.3-4.4,8.5-5.8c3.3-1.5,6.8-2.2,10.6-2.2c3.7,0,7.2,0.7,10.5,2.2C442,26.4,444.8,28.3,447.2,30.8z M446.6,49.9
			c0,2.5-0.5,4.9-1.4,7.1c-1,2.2-2.3,4.1-3.9,5.8c-1.7,1.7-3.6,3-5.9,3.9c-2.2,1-4.6,1.4-7.1,1.4c-2.5,0-4.9-0.5-7.1-1.4
			c-2.2-1-4.1-2.3-5.8-3.9s-3-3.6-3.9-5.8c-1-2.2-1.4-4.6-1.4-7.1c0-2.5,0.5-4.9,1.4-7.1c1-2.3,2.3-4.2,3.9-5.9
			c1.7-1.7,3.6-3,5.8-3.9c2.2-1,4.6-1.4,7.1-1.4c2.5,0,4.9,0.5,7.1,1.4c2.3,1,4.2,2.3,5.9,3.9c1.7,1.7,3,3.6,3.9,5.9
			C446.1,45,446.6,47.4,446.6,49.9z"/>
		<path class="st1" d="M371.4,68.2c-2.6,0-5-0.5-7.2-1.4c-2.2-1-4.2-2.3-5.9-3.9c-1.7-1.7-3-3.7-3.9-5.9c-1-2.2-1.4-4.6-1.4-7.2
			c0-2.5,0.5-4.9,1.4-7.1c1-2.3,2.3-4.2,3.9-5.9c1.7-1.7,3.7-3,5.9-4c2.2-1,4.6-1.4,7.2-1.4h27.1v-8.7h-27.1
			c-3.7,0-7.2,0.7-10.5,2.2c-3.3,1.4-6.2,3.3-8.6,5.8c-2.4,2.4-4.4,5.3-5.8,8.5c-1.5,3.3-2.2,6.8-2.2,10.6c0,3.7,0.7,7.3,2.2,10.6
			c1.4,3.2,3.4,6.1,5.8,8.6l0,0l0,0c2.5,2.4,5.4,4.3,8.6,5.8c3.3,1.5,6.8,2.2,10.6,2.2h27.1v-8.7H371.4z"/>
		<path class="st1" d="M313.6,52V0H305v30c-1.6-1.5-3.5-2.8-5.5-3.9c-3.9-2.2-8.2-3.4-12.9-3.4c-3.7,0-7.2,0.7-10.5,2.2
			c-3.3,1.4-6.2,3.3-8.6,5.8c-2.4,2.4-4.4,5.3-5.8,8.5l0,0l0,0c-1.4,3.3-2.1,6.8-2.1,10.5c0,3.7,0.7,7.2,2.1,10.5l0,0l0,0
			c1.4,3.2,3.4,6.1,5.8,8.6l0,0l0,0c2.5,2.4,5.4,4.3,8.6,5.8l0,0l0,0c3.3,1.4,6.8,2.1,10.5,2.1c3.5,0,6.9-0.6,10-1.9l0,0l0,0
			c3.1-1.3,5.9-3.1,8.2-5.3c2.4-2.2,4.4-4.8,5.9-7.8C312.4,58.8,313.4,55.5,313.6,52L313.6,52z M293.8,66.8c-2.2,1-4.6,1.4-7.1,1.4
			c-2.5,0-4.9-0.5-7.1-1.4c-2.3-1-4.2-2.3-5.9-3.9c-1.7-1.7-3-3.6-3.9-5.9c-1-2.2-1.4-4.6-1.4-7.1c0-2.5,0.5-4.9,1.4-7.1
			c1-2.3,2.3-4.2,3.9-5.9c1.7-1.7,3.6-3,5.9-3.9c2.2-1,4.6-1.4,7.1-1.4c2.5,0,4.9,0.5,7.1,1.4c2.3,1,4.2,2.3,5.9,3.9
			c1.7,1.7,3,3.6,3.9,5.9c1,2.2,1.4,4.6,1.4,7.1c0,2.5-0.5,4.9-1.4,7.1c-1,2.3-2.3,4.2-3.9,5.9C298,64.5,296.1,65.8,293.8,66.8z"/>
		<path class="st1" d="M230.6,68.2c-2.5,0-4.8-0.5-6.9-1.4c-2.1-1-4-2.3-5.6-3.9c-1.6-1.7-2.9-3.6-3.9-5.9c-0.9-2.2-1.4-4.6-1.4-7.2
			c0-2.5,0.5-4.9,1.4-7.2c1-2.3,2.3-4.2,3.9-5.9c1.6-1.7,3.5-3,5.6-3.9c2.2-1,4.5-1.4,6.9-1.4h26.3v-8.7h-26.3
			c-3.6,0-7.1,0.7-10.3,2.2c-3.2,1.4-5.9,3.3-8.4,5.8l0,0c-2.4,2.4-4.2,5.3-5.6,8.5c-1.4,3.3-2.1,6.8-2.1,10.5
			c0,3.7,0.7,7.2,2.1,10.5c1.4,3.2,3.2,6.1,5.6,8.6l0,0l0,0c2.4,2.4,5.2,4.3,8.3,5.8l0,0l0,0c3.2,1.4,6.7,2.1,10.3,2.1h26.3v-8.7
			H230.6z M226.3,54.1h30.6v-8.7h-30.6V54.1z"/>
		<path class="st1" d="M201.5,52V0H193v30c-1.6-1.5-3.5-2.8-5.5-3.9c-3.9-2.2-8.2-3.4-12.9-3.4c-3.7,0-7.2,0.7-10.5,2.2
			c-3.3,1.4-6.2,3.3-8.6,5.8c-2.4,2.4-4.4,5.3-5.8,8.5l0,0l0,0c-1.4,3.3-2.1,6.8-2.1,10.5c0,3.7,0.7,7.2,2.1,10.5l0,0l0,0
			c1.4,3.2,3.4,6.1,5.8,8.6l0,0l0,0c2.5,2.4,5.4,4.3,8.6,5.8l0,0l0,0c3.3,1.4,6.8,2.1,10.5,2.1c3.5,0,6.9-0.6,10-1.9l0,0l0,0
			c3.1-1.3,5.9-3.1,8.2-5.3c2.4-2.2,4.4-4.8,5.9-7.8C200.4,58.8,201.3,55.5,201.5,52L201.5,52z M181.7,66.8c-2.2,1-4.6,1.4-7.1,1.4
			s-4.9-0.5-7.1-1.4c-2.3-1-4.2-2.3-5.9-3.9c-1.7-1.7-3-3.6-3.9-5.9c-1-2.2-1.4-4.6-1.4-7.1c0-2.5,0.5-4.9,1.4-7.1
			c1-2.3,2.3-4.2,3.9-5.9c1.7-1.7,3.6-3,5.9-3.9c2.2-1,4.6-1.4,7.1-1.4s4.9,0.5,7.1,1.4c2.3,1,4.2,2.3,5.9,3.9
			c1.7,1.7,3,3.6,3.9,5.9c1,2.2,1.4,4.6,1.4,7.1c0,2.5-0.5,4.9-1.4,7.1c-1,2.3-2.3,4.2-3.9,5.9C185.9,64.5,184,65.8,181.7,66.8z"/>
		<path class="st1" d="M93,39.4L93,39.4L93,39.4c-1.4,3.3-2.1,6.8-2.1,10.5v27h8.7v-27c0-2.5,0.5-4.9,1.4-7l0,0l0,0
			c1-2.3,2.3-4.2,3.9-5.9c1.7-1.7,3.6-3,5.8-3.9c2.2-1,4.6-1.4,7.1-1.4c2.5,0,4.9,0.5,7,1.4l0,0l0,0c2.3,1,4.2,2.3,5.9,3.9
			c1.7,1.7,3,3.6,3.9,5.9l0,0l0,0c1,2.2,1.4,4.5,1.4,7v27h8.7v-27c0-3.7-0.7-7.2-2.2-10.5c-1.4-3.3-3.3-6.1-5.8-8.5
			c-2.4-2.5-5.3-4.4-8.5-5.8c-3.2-1.5-6.7-2.2-10.5-2.2c-3.7,0-7.2,0.7-10.6,2.2c-3.2,1.4-6.1,3.3-8.5,5.8
			C96.4,33.3,94.4,36.2,93,39.4z"/>
		<path class="st1" d="M42.8,22.7h-8.7v27.1c0,3.7,0.7,7.2,2.1,10.5l0,0l0,0c1.4,3.2,3.4,6.1,5.8,8.6l0,0l0,0
			c2.5,2.4,5.4,4.3,8.6,5.8l0,0l0,0c3.3,1.4,6.8,2.1,10.5,2.1c3.7,0,7.2-0.7,10.5-2.1l0,0l0,0c3.3-1.4,6.1-3.4,8.5-5.8
			c2.5-2.5,4.4-5.4,5.8-8.6c1.4-3.3,2.2-6.8,2.2-10.5V22.7h-8.7v27.1c0,2.5-0.5,4.9-1.4,7.1c-1,2.3-2.3,4.2-3.9,5.9
			c-1.7,1.7-3.6,3-5.9,3.9c-2.2,1-4.6,1.4-7.1,1.4c-2.5,0-4.9-0.5-7.1-1.4c-2.3-1-4.2-2.3-5.9-3.9c-1.7-1.7-3-3.6-3.9-5.9
			c-1-2.2-1.4-4.6-1.4-7.1V22.7z"/>
		<path class="st2" d="M0,49.8v27.1h8.7V49.8c0-2.5,0.5-4.9,1.4-7.1c1-2.3,2.3-4.2,3.9-5.9c1.7-1.7,3.6-3,5.9-3.9
			c2.2-1,4.6-1.4,7.1-1.4h4.3v-8.7h-4.3c-3.7,0-7.2,0.7-10.5,2.2c-3.3,1.4-6.2,3.3-8.6,5.8c-2.4,2.4-4.4,5.3-5.8,8.5l0,0l0,0
			C0.7,42.6,0,46.1,0,49.8z M31.4,45.5H13.8v8.7h17.6V45.5z"/>
	</g>
</g>
</svg>
