<svg width="208" height="82" fill="none" xmlns="http://www.w3.org/2000/svg"><path fill-rule="evenodd" clip-rule="evenodd" d="M71.02 7.912c-.348.277-.122.333.657.162.82-.18 1.197-.071 1.22.353.02.34.37.535.79.44.527-.12.727.073.663.64l-.092.812 1.058-.867c.582-.476 1.055-1.014 1.052-1.194-.002-.18-.012-.474-.022-.654-.026-.467-4.693-.198-5.326.308Zm-1.536 2.517c-1.367 1.006-3.898 4.23-3.292 4.196.25-.015.57-.242.714-.505.142-.263.724-.686 1.293-.94.57-.254 1.147-.816 1.285-1.248.138-.431.633-1.144 1.1-1.583 1.084-1.019.32-.963-1.1.08Zm9.447.413c-.134.248-.036.439.217.424.253-.014.45-.222.436-.461-.013-.24-.11-.43-.216-.425-.106.006-.302.214-.437.462Zm-2.855 3.662c-1.465 1.528-2.646 2.922-2.624 3.098.021.175-.89.599-2.027.941-1.135.342-1.721.62-1.3.62.42 0 .773.17.785.377.032.564-3.497 1.665-4.97 1.55l-1.28-.1 1.06-.551 1.06-.551-1.39.05c-.765.03-1.5.255-1.635.503-.134.248.001.437.3.42.3-.017.18.268-.265.634-1.115.917-.363 1.43.935.638 1.11-.679 1.653-.592 1.188.189-.33.554-6.277 2.725-7.678 2.802-.54.03-.97.224-.958.431.011.207-1.38.8-3.092 1.316-3.752 1.132-6.852 2.684-6.465 3.236.155.222-.23.432-.858.468-.649.037-1.034-.13-.895-.386.348-.641-.327-.523-2.197.387-.972.472-2.22.728-3.106.636-.815-.085-2.089.143-2.831.506s-3.089 1.19-5.214 1.838c-2.125.648-5.205 1.803-6.845 2.567-3.633 1.693-9.21 3.602-10.783 3.692-.635.036-1.029.179-.874.317.408.365 3.855.465 8.808.258 2.807-.118 4.388-.01 4.516.309.108.27-.059.494-.37.498-2.468.037-3.419.347-3.256 1.063l.171.755-2.185-.028c-1.202-.015-2.415-.195-2.697-.4-.567-.412-1.91.037-1.876.628.012.205-.279.278-.646.161-.895-.286-.804.924.12 1.607.394.29 1.664.487 2.823.438 1.159-.048 2.039.038 1.955.192-.28.518 2.956.612 4.063.118 2.797-1.25.531 1.01-2.829 2.822-2.688 1.45-4.847 3.003-7.002 5.04-2.354 2.224-4.071 3.446-4.91 3.494-.354.02-.632.236-.618.48.014.244-.422.359-.968.256-1.133-.215-6.302 2.469-6.257 3.248.015.266.267.377.56.245 3.309-1.49 6.817-1.74 5.296-.378l-.8.717 1.354-.753c1.685-.937 1.825-.944 1.873-.098l.039.682 1.255-1.006c1.287-1.03 2.571-1.178 2.907-.333.104.262-.39.755-1.097 1.096-1.252.604-1.412 1.606-.167 1.045.344-.155.638-.065.653.2.015.265-.365.504-.844.532-.478.027-.858.268-.842.536.017.303.389.35.99.128 2.108-.785 4.497-1.328 6.36-1.446l1.958-.124-1.053.682c-3.049 1.976-4.82 2.618-5.305 1.924-.329-.47-9.437-.022-9.409.463.012.21.46.332.998.272 2.207-.245 3.855-.092 3.623.338-.146.268.383.415 1.305.362.852-.048 1.56.108 1.574.347.014.24 1.004.38 2.201.312s2.188.072 2.202.311c.014.24-.22.45-.52.466-.299.018-1.649 1.176-3 2.573-1.351 1.399-2.636 2.553-2.856 2.565-.219.013-.12.322.221.689.502.54 1.111.581 3.206.223 1.585-.271 3.693-.287 5.443-.042 2.235.313 2.888.283 3.003-.14.08-.298.418-.556.75-.575.336-.02.515.24.405.584-.157.49.533.61 3.287.58 4.014-.047 4.644.26 3.203 1.558l-1.032.93 1.068-.416c.587-.229 2.243-.483 3.68-.565 1.437-.082 3.383-.424 4.324-.76 3.533-1.26 5.243-1.686 8.72-2.176 1.966-.277 3.568-.63 3.56-.785-.01-.154 1.719-.41 3.84-.568 3.342-.25 10.864-1.67 13.128-2.48.543-.194.763-.02.8.633.039.675-.227.916-1.063.963-.678.04-.991.24-.8.512.173.247-.091.58-.587.74-.496.16-.886.553-.868.873.018.322-.645.75-1.479.957-.832.205-1.61.553-1.729.773-.333.616.865.41 2.636-.45 1.266-.616 1.678-.668 1.971-.25.296.423.502.406 1.03-.084.362-.337 1.279-.722 2.038-.854 1.321-.231 2.65-.693 12.75-4.43 2.466-.914 4.975-1.734 5.574-1.822.599-.09 3.317-.713 6.041-1.387 5.757-1.423 7.834-1.83 9.925-1.947.832-.047 2.823-.517 4.424-1.046 1.601-.529 3.027-.796 3.169-.593.141.203.05.38-.204.394-.253.015-.44.381-.416.815.047.827-1.642 2.443-4.142 3.962-.812.493-1.653 1.084-1.868 1.311-.931.986.819.169 6.408-2.992 7.339-4.15 12.915-6.042 9.764-3.314l-.792.685 1.218-.356c1.826-.536 1.036.451-.867 1.083-1.627.54-3.207 2.39-1.983 2.32.331-.019 1.414-.374 2.407-.789l1.804-.754-.222.693c-.251.785.737.546 2.969-.72 5.404-3.063 16.473-6.197 21.315-6.035 1.422.048 2.578-.048 2.568-.213-.009-.164 1.32-.3 2.954-.3l2.971-.002 1.245-1.174 1.244-1.174 3.453-.299c4.516-.39 8.384-1.248 9.627-2.134.817-.582 1.067-.61 1.386-.155.317.454.765.396 2.439-.313 1.127-.478 2.392-.888 2.811-.91.419-.023.754-.188.745-.368-.01-.18.671-.38 1.515-.447.841-.067 1.757-.385 2.033-.708.405-.474.21-.511-1.006-.191-1.231.324-1.413.287-.995-.202.281-.33 1.247-.624 2.147-.655l1.636-.055-1.049-.331c-.577-.182-1.57-.262-2.206-.177-.638.085-1.409.019-1.716-.147-.979-.53-.16-1.138 1.673-1.243.977-.056 1.979-.376 2.227-.711.772-1.045 5.421-2.878 8.59-3.386 3.141-.504 6.781-1.53 8.054-2.27.403-.235 1.007-.443 1.341-.462.331-.019.823-.33 1.09-.691.265-.361.769-.566 1.119-.454.382.122.618-.066.597-.474-.022-.374.27-.875.647-1.116.517-.33.549-.511.128-.74-.309-.166-.676-.087-.82.177-.41.755-2.684 1.646-3.01 1.18-.155-.223-1.835-.426-3.732-.453-2.172-.03-3.733-.277-4.218-.667-.421-.34-1.016-.604-1.322-.587-1.219.07-6.643-1.098-6.661-1.433-.011-.197-.723-.606-1.581-.909-1.573-.554-2.148-1.434-.98-1.5.348-.02.771-.32.944-.666.202-.405 1.775-.893 4.397-1.362 5.488-.983 10.35-2.742 10.295-3.725-.018-.303-.364-.175-.846.314l-.814.827-1.348-.47c-2.1-.733-1.646-1.062 1.679-1.216l3.062-.142-.805-.49a19.261 19.261 0 0 1-1.291-.854c-1.122-.845-2.27-1.125-3.072-.749l-.851.4 1.31.001h1.31l-1.499.444c-.824.245-1.705.292-1.959.106-.252-.186-.952-.332-1.552-.324-1.876.025-12.817.29-13.847.335-.539.024-.991-.152-1.005-.392-.013-.24.269-.452.628-.473 1.183-.067.679-2.444-.625-2.95-2.098-.816-3.291-.404-1.372.473 3.438 1.572.997 3.198-4.434 2.954-1.978-.088-4.624-.094-5.88-.012-1.256.082-2.293.002-2.303-.178-.011-.18-.337-.308-.725-.286-1.354.077.142-1.197 2.25-1.916 4.096-1.397 4.163-1.47 1.049-1.154-3.832.39-4.91-.053-1.972-.81 1.636-.42 2.761-.444 4.503-.094 2.734.551 8.608-.04 9.077-.914.166-.31 1.614-.975 3.218-1.476l2.914-.912-5.05.527c-3.69.386-5.148.391-5.406.023-.595-.852.51-1.21 3.908-1.265 1.969-.033 3.142-.211 2.974-.452-.155-.221.397-.436 1.245-.484.838-.048 1.657.102 1.817.333.162.23.91.385 1.662.342 1.434-.082 1.207-.666-.39-1.005-.484-.103.004-.149 1.087-.102l1.97.085-1.067-.387c-.643-.233-4.194-.152-8.942.205l-7.874.592 3.346-.87c4.428-1.153 3.413-1.98-1.5-1.222-2.637.407-3.397.382-4.047-.13-.656-.517-.794-.521-.765-.02.041.723.292.687-11.48 1.65-7.482.613-9.308.645-10.12.178-.929-.535-1.745-.478-4.846.338-.552.146-.908.088-.792-.129.118-.215 1.923-.738 4.011-1.16 2.088-.423 4.18-.946 4.649-1.163.468-.216 1.719-.675 2.78-1.02 3.786-1.23 4.071-1.372 4.035-2.007-.051-.897-2.603-.941-3.391-.059-.34.381-.746.579-.903.44-.156-.14-.273-.045-.258.212.015.257-.364.389-.841.292-.48-.096-1.164.157-1.528.565-.363.407-1.072.763-1.577.792-.505.029-1.509.267-2.232.53-.722.263-2.378.778-3.678 1.146-1.3.366-2.652.79-3.004.941l-.639.274.607-.845.607-.845-1.453.375c-.799.206-1.722.39-2.051.409a.61.61 0 0 0-.563.652c.023.408-.977.91-2.95 1.478-3.488 1.005-4.744 1.133-2.661.271 1.537-.636 2.241-1.74 1.065-1.674-.379.022-.677.243-.663.492.015.255-.787.466-1.829.482-1.02.016-2.902.313-4.182.66-2.598.703-3.336.55-1.643-.34.613-.323 1.106-.752 1.094-.953-.037-.654-1.315-.313-3.441.922-1.147.666-2.469 1.232-2.936 1.259-.467.026-1.389.355-2.047.731-2.179 1.243-3.304 1.687-5.251 2.073-2.737.542-1.856-.123 1.53-1.156 1.576-.48 2.928-1.104 3.005-1.385.174-.643-5.325 1.176-7.637 2.527-.897.524-2.166.983-2.82 1.02l-1.189.068.807-.724.806-.724-1.071.358c-.589.196-1.616.674-2.282 1.063-1.136.662-3.11 1.061-8.263 1.67-1.193.142-3.072.566-4.176.943-1.598.546-2.252.59-3.208.219l-1.2-.467.725-.9c.875-1.085.28-1.142-1.042-.099-1.11.876-1.728.605-.967-.426.807-1.095.278-1.163-2.17-.282-1.239.447-2.14.913-2 1.038.641.573-1.084 1.468-4.118 2.136-4.263.939-4.244 1.046-.624-3.492 1.7-2.13 3.521-4.644 4.048-5.586.526-.942 1.222-1.832 1.545-1.978.562-.253 1.223-1.543.777-1.518-.118.007-1.414 1.262-2.88 2.79Zm-8.015 1.87-.458 1.01.886-.883c.986-.98 1.069-1.195.45-1.16-.23.014-.626.478-.878 1.033Zm73.497-4.442c.306.104.796.076 1.088-.062.293-.138.042-.223-.557-.189-.598.035-.837.147-.531.25ZM68.959 16.94l-.556.758.95-.578c.982-.597 1.21-.998.544-.96-.21.012-.632.363-.938.78Zm-5.724 1.6-.809.666.71-.04c.392-.023.828-.258.971-.522.42-.773.002-.823-.872-.104Zm17.404 3.122c.014.24-.612.449-1.392.465l-1.418.029 1.287-.407c.708-.224 1.335-.433 1.393-.464.058-.032.117.138.13.377Zm90.899-4.877c-.41.133-1.193.182-1.741.108-.547-.073-.212-.181.746-.24.957-.06 1.405 0 .995.133ZM57.858 24.27c-.134.248.16.428.653.4.493-.029.885-.247.871-.487-.013-.24-.306-.419-.652-.4-.345.02-.737.24-.871.487Zm-2.643.879c.17.15.43.135.581-.034.15-.168.012-.291-.307-.273-.319.018-.442.156-.274.307Zm5.33.278c-.134.248-.576.467-.98.486l-.737.035.629-.459c.82-.6 1.397-.632 1.088-.062Zm110.666-6.475c-.137.152-.512.19-.833.081-.355-.118-.258-.227.248-.277.458-.045.721.043.585.196Zm-97.814 5.915c.006.094-.287.305-.65.469-.38.17-.558.107-.42-.148.232-.428 1.05-.674 1.07-.321Zm86.331-4.29c.343.305-.225.401-1.916.323-1.866-.085-2.657.077-3.535.727-.88.65-1.35.747-2.117.432a16.849 16.849 0 0 0-1.762-.604c-.426-.11-.788-.43-.804-.71-.038-.654 9.415-.81 10.134-.169Zm-89.23 5.007c-.288.136-.875.177-1.305.09-.43-.086-.194-.198.524-.247.718-.05 1.07.02.781.157Zm98.53-4.56c-.177.326.269.352 1.398.08 2.2-.528 2.353-.759.432-.65-.864.05-1.687.306-1.83.57ZM36.103 33.37c-.135.248-.577.456-.982.463-.602.009-.581-.067.111-.413 1.136-.567 1.152-.568.87-.05Zm153.555-6.998a.438.438 0 0 1-.41.46.441.441 0 0 0-.41.469c.015.256.478.301 1.098.108.651-.203 1.083-.15 1.099.138.08 1.406-5.008 2.964-6.203 1.899-.876-.783-1.153-.708-1.096.295.069 1.222-.74 1.596-1.519.702l-.668-.77-.55.796c-.669.97-1.525 1.058-2.691.276-.485-.325-1.151-.582-1.48-.57l-.598.02.639.69.638.69-.979-.453c-.54-.248-1.385-.43-1.88-.4-.494.027-.911-.159-.925-.414-.015-.256.322-.39.747-.298.425.092 1.647-.03 2.714-.27l1.941-.438-2.129-.448c-2.762-.58-2.239-1.022 1.88-1.586 2.633-.36 3.478-.328 4.017.152.892.796 2.237.731 1.867-.09-.209-.463.173-.682 1.541-.884 1-.149 2.159-.324 2.575-.39.417-.065.768.077.782.316ZM34.535 36.918c.375.535-4.068 1.715-4.616 1.226-.265-.238.45-.596 1.879-.94 1.269-.307 2.344-.583 2.388-.614.044-.031.201.116.35.328Zm159.141-9.027c-.347.253-1.022.471-1.502.485l-.872.026.851-.424c.466-.233 1.142-.451 1.499-.485l.652-.06-.628.458Zm-156.7 9.315c.029.496-1.052.986-2.27 1.03l-.945.034 1.272-.673c1.554-.821 1.915-.894 1.943-.391Zm150.848-8.545c-.135.248-.049.44.191.426.24-.013.544-.227.679-.475.134-.248.049-.44-.191-.426-.239.014-.546.228-.679.475ZM24.186 38.855c-.467.233-1.83.47-3.027.526l-2.178.103 1.287-.406c1.883-.595 5.021-.774 3.918-.224Zm147.654-7.1c.161.232.098.432-.142.445-.239.014-.567-.164-.729-.395-.162-.23-.098-.431.142-.445.239-.013.567.164.729.395ZM26.502 42.94c-.288.136-.876.177-1.305.09-.43-.086-.195-.197.523-.247.718-.05 1.07.02.782.157ZM5.967 46.305c.321.108.696.07.832-.082.136-.153-.126-.24-.584-.196-.506.05-.603.159-.248.278Zm18.56 2.368c.02.343-2.2 1.264-2.468 1.024-.128-.114.226-.422.786-.684 1.199-.56 1.664-.654 1.682-.34Zm168.509-1.327c.025.432.439.583 1.299.472.955-.124 1.146-.29.782-.683-.665-.714-2.125-.566-2.081.21Zm-13.471 1.195c.006.106-.178.325-.409.486-.231.162-.432.086-.446-.167a.45.45 0 0 1 .409-.486c.239-.014.44.061.446.167Zm-151.01 9.5c-.278.376-.701.695-.94.709-.244.014-.213-.278.069-.66.277-.376.7-.695.94-.708.243-.014.212.278-.07.659Zm1.706 1.084c-.08.294-.76.73-1.51.972-.75.24-1.354.628-1.34.86.012.233-.76.468-1.718.523-.958.054-1.73.288-1.718.519.014.23-.328.635-.758.897l-.782.478.146-1.098c.18-1.358 1.975-2.476 4.188-2.611.91-.056 1.937-.308 2.283-.56.862-.63 1.383-.621 1.209.02Zm-.022 1.659c-.134.248-.44.462-.68.475-.239.014-.325-.178-.19-.425.134-.248.44-.462.68-.476.239-.014.325.178.19.426ZM12 63.861c.168.15.43.135.58-.033.15-.169.012-.292-.307-.274-.32.018-.442.156-.274.307Zm110.196-.161a.412.412 0 0 1-.58.033c-.169-.151-.045-.29.274-.307.319-.018.457.105.306.274ZM73.28 68.815c-.346.252-1.12.476-1.72.497l-1.089.038.85-.424c.467-.233 1.24-.457 1.718-.497l.87-.073-.63.459Zm-43.77 3.007c-.11.204-.57.391-1.02.417-.451.026-.93.25-1.064.497-.36.666-1.058.59-1.099-.12-.02-.338-.233-.67-.475-.736-.243-.067.527-.19 1.709-.274 1.182-.085 2.059.012 1.949.216Zm-15.4 8.66c.013.24.209.426.434.413.226-.013.52-.226.654-.474.134-.248-.061-.434-.434-.412-.374.021-.668.234-.654.474Zm2.522-.281c.321.108.696.07.832-.082.137-.153-.126-.241-.584-.196-.506.05-.603.159-.248.278Zm-6.198.928c.162.23.82.376 1.464.323l1.17-.098-.893-.324c-1.239-.451-2.092-.403-1.741.099Z" fill="#FFAF2E"/><path d="M38.914 53.922V34.364H35.39v-3.842h12.22v3.842h-3.496v19.558h-5.2Zm7.867 0v-23.4h6.443c1.579 0 2.946.173 4.102.52 1.155.346 2.051.973 2.687 1.878.654.886.982 2.147.982 3.784 0 .963-.077 1.82-.231 2.571a4.796 4.796 0 0 1-.867 1.965c-.404.54-.992.992-1.762 1.358l3.206 11.324h-5.344l-2.571-10.486h-1.474v10.486h-5.17Zm5.172-13.462h1.444c.732 0 1.3-.125 1.705-.376a2.07 2.07 0 0 0 .837-1.126c.173-.501.26-1.098.26-1.792 0-1.001-.183-1.781-.549-2.34-.366-.558-1.04-.837-2.022-.837h-1.675v6.47Zm8.135 13.462 4.42-23.4h5.893l4.363 23.4h-4.767l-.78-4.94h-3.438l-.809 4.94h-4.882Zm6.153-8.031h2.485l-1.242-9.13-1.243 9.13Zm7.996 8.031v-23.4h5.923c2.041 0 3.63.26 4.766.78 1.137.5 1.936 1.3 2.398 2.398.463 1.078.694 2.484.694 4.217v8.494c0 1.752-.231 3.188-.694 4.304-.462 1.098-1.261 1.907-2.398 2.427-1.117.52-2.686.78-4.709.78h-5.98Zm5.172-3.582h.808c.79 0 1.358-.116 1.705-.347.347-.23.559-.578.635-1.04.097-.462.145-1.04.145-1.733V37.022c0-.693-.058-1.252-.173-1.675-.097-.424-.318-.732-.665-.925-.346-.193-.905-.289-1.675-.289h-.78V50.34Zm8.867 3.582v-23.4H98.79v3.524h-5.344v5.807h4.073v3.582h-4.073v6.992h5.402v3.495H88.276Zm10.032 0v-23.4h6.442c1.58 0 2.947.173 4.103.52 1.155.346 2.051.973 2.686 1.878.655.886.982 2.147.982 3.784 0 .963-.076 1.82-.231 2.571a4.803 4.803 0 0 1-.866 1.965c-.405.54-.992.992-1.762 1.358l3.206 11.324h-5.344l-2.571-10.486h-1.474v10.486h-5.17Zm5.171-13.462h1.445c.731 0 1.3-.125 1.704-.376.405-.27.684-.645.838-1.126.173-.501.26-1.098.26-1.792 0-1.001-.183-1.781-.549-2.34-.366-.558-1.04-.837-2.022-.837h-1.676v6.47Zm19.976 13.809c-1.463 0-2.686-.26-3.669-.78-.982-.52-1.723-1.32-2.224-2.398-.501-1.098-.78-2.513-.838-4.247l4.42-.664c.019 1.001.106 1.81.26 2.426.173.617.405 1.06.693 1.33.309.27.674.404 1.098.404.539 0 .886-.183 1.04-.549.174-.366.26-.751.26-1.155 0-.964-.231-1.772-.693-2.427-.462-.674-1.088-1.348-1.878-2.023l-2.022-1.762a11.728 11.728 0 0 1-2.253-2.542c-.598-.963-.896-2.147-.896-3.553 0-1.984.587-3.496 1.762-4.536 1.175-1.06 2.773-1.589 4.796-1.589 1.252 0 2.253.212 3.004.636.771.423 1.348.982 1.734 1.675.404.674.674 1.397.809 2.167.154.751.24 1.473.26 2.167l-4.449.549c-.02-.694-.068-1.29-.145-1.792-.058-.52-.193-.914-.404-1.184-.212-.289-.54-.433-.982-.433-.482 0-.838.202-1.069.606a2.593 2.593 0 0 0-.318 1.214c0 .866.202 1.579.607 2.138.423.539.972 1.107 1.646 1.704l1.936 1.704a12.87 12.87 0 0 1 2.571 2.947c.713 1.098 1.069 2.456 1.069 4.074 0 1.097-.251 2.099-.751 3.004a5.495 5.495 0 0 1-2.138 2.109c-.905.52-1.984.78-3.236.78Zm5.74-.347v-23.4h7.858c1.406 0 2.561.27 3.466.809.905.52 1.58 1.29 2.023 2.311.443 1.002.664 2.224.664 3.669 0 1.81-.299 3.197-.896 4.16-.597.944-1.406 1.599-2.426 1.965-1.021.365-2.167.548-3.438.548h-2.08v9.938h-5.171Zm5.171-13.549h1.733c.636 0 1.117-.115 1.445-.347.327-.23.539-.577.635-1.04.116-.462.174-1.05.174-1.762 0-.597-.049-1.117-.145-1.56-.077-.462-.279-.828-.607-1.098-.327-.27-.837-.404-1.531-.404h-1.704v6.211Zm5.935 13.55 4.42-23.401h5.893l4.363 23.4h-4.767l-.78-4.94h-3.438l-.809 4.94h-4.882Zm6.153-8.032h2.485l-1.243-9.13-1.242 9.13Zm14.332 8.378c-1.772 0-3.178-.318-4.218-.953a5.31 5.31 0 0 1-2.167-2.716c-.423-1.175-.635-2.552-.635-4.131v-8.436c0-1.618.212-3.004.635-4.16.424-1.175 1.146-2.08 2.167-2.715 1.04-.636 2.446-.954 4.218-.954 1.733 0 3.081.289 4.044.867.982.558 1.676 1.348 2.08 2.369.405 1.02.607 2.195.607 3.524v2.022h-5.056v-2.34c0-.462-.029-.905-.086-1.328-.039-.424-.174-.77-.405-1.04-.231-.29-.626-.434-1.184-.434-.539 0-.944.145-1.214.433-.25.29-.414.655-.491 1.098-.057.424-.086.877-.086 1.358V47.74c0 .52.038 1.001.115 1.444.097.424.27.77.52 1.04.27.25.655.376 1.156.376.539 0 .924-.135 1.155-.404.232-.29.376-.655.434-1.098.057-.443.086-.896.086-1.358v-2.456h5.056v2.023c0 1.328-.202 2.523-.607 3.582-.385 1.04-1.069 1.868-2.051 2.484-.963.597-2.321.896-4.073.896Zm6.687-.347v-23.4h10.516v3.524h-5.345v5.807h4.074v3.582h-4.074v6.992h5.403v3.495h-10.574Z" fill="#191919"/><mask id="a" style="mask-type:luminance" maskUnits="userSpaceOnUse" x="31" y="26" width="151" height="32"><path d="M181.748 26.529H31.625v31.358h150.123V26.53Z" fill="#fff"/><path d="M38.914 53.922V34.364H35.39v-3.842h12.22v3.842h-3.496v19.558h-5.2Zm7.867 0v-23.4h6.443c1.579 0 2.946.173 4.102.52 1.155.346 2.051.973 2.687 1.878.654.886.982 2.147.982 3.784 0 .963-.077 1.82-.231 2.571a4.796 4.796 0 0 1-.867 1.965c-.404.54-.992.992-1.762 1.358l3.206 11.324h-5.344l-2.571-10.486h-1.474v10.486h-5.17Zm5.172-13.462h1.444c.732 0 1.3-.125 1.705-.376a2.07 2.07 0 0 0 .837-1.126c.173-.501.26-1.098.26-1.792 0-1.001-.183-1.781-.549-2.34-.366-.558-1.04-.837-2.022-.837h-1.675v6.47Zm8.135 13.462 4.42-23.4h5.893l4.363 23.4h-4.767l-.78-4.94h-3.438l-.809 4.94h-4.882Zm6.153-8.031h2.485l-1.242-9.13-1.243 9.13Zm7.996 8.031v-23.4h5.923c2.041 0 3.63.26 4.766.78 1.137.5 1.936 1.3 2.398 2.398.463 1.078.694 2.484.694 4.217v8.494c0 1.752-.231 3.188-.694 4.304-.462 1.098-1.261 1.907-2.398 2.427-1.117.52-2.686.78-4.709.78h-5.98Zm5.172-3.582h.808c.79 0 1.358-.116 1.705-.347.347-.23.559-.578.635-1.04.097-.462.145-1.04.145-1.733V37.022c0-.693-.058-1.252-.173-1.675-.097-.424-.318-.732-.665-.925-.346-.193-.905-.289-1.675-.289h-.78V50.34Zm8.867 3.582v-23.4H98.79v3.524h-5.344v5.807h4.073v3.582h-4.073v6.992h5.402v3.495H88.276Zm10.032 0v-23.4h6.442c1.58 0 2.947.173 4.103.52 1.155.346 2.051.973 2.686 1.878.655.886.982 2.147.982 3.784 0 .963-.076 1.82-.231 2.571a4.803 4.803 0 0 1-.866 1.965c-.405.54-.992.992-1.762 1.358l3.206 11.324h-5.344l-2.571-10.486h-1.474v10.486h-5.17Zm5.171-13.462h1.445c.731 0 1.3-.125 1.704-.376.405-.27.684-.645.838-1.126.173-.501.26-1.098.26-1.792 0-1.001-.183-1.781-.549-2.34-.366-.558-1.04-.837-2.022-.837h-1.676v6.47Zm19.976 13.809c-1.463 0-2.686-.26-3.669-.78-.982-.52-1.723-1.32-2.224-2.398-.501-1.098-.78-2.513-.838-4.247l4.42-.664c.019 1.001.106 1.81.26 2.426.173.617.405 1.06.693 1.33.309.27.674.404 1.098.404.539 0 .886-.183 1.04-.549.174-.366.26-.751.26-1.155 0-.964-.231-1.772-.693-2.427-.462-.674-1.088-1.348-1.878-2.023l-2.022-1.762a11.728 11.728 0 0 1-2.253-2.542c-.598-.963-.896-2.147-.896-3.553 0-1.984.587-3.496 1.762-4.536 1.175-1.06 2.773-1.589 4.796-1.589 1.252 0 2.253.212 3.004.636.771.423 1.348.982 1.734 1.675.404.674.674 1.397.809 2.167.154.751.24 1.473.26 2.167l-4.449.549c-.02-.694-.068-1.29-.145-1.792-.058-.52-.193-.914-.404-1.184-.212-.289-.54-.433-.982-.433-.482 0-.838.202-1.069.606a2.593 2.593 0 0 0-.318 1.214c0 .866.202 1.579.607 2.138.423.539.972 1.107 1.646 1.704l1.936 1.704a12.87 12.87 0 0 1 2.571 2.947c.713 1.098 1.069 2.456 1.069 4.074 0 1.097-.251 2.099-.751 3.004a5.495 5.495 0 0 1-2.138 2.109c-.905.52-1.984.78-3.236.78Zm5.74-.347v-23.4h7.858c1.406 0 2.561.27 3.466.809.905.52 1.58 1.29 2.023 2.311.443 1.002.664 2.224.664 3.669 0 1.81-.299 3.197-.896 4.16-.597.944-1.406 1.599-2.426 1.965-1.021.365-2.167.548-3.438.548h-2.08v9.938h-5.171Zm5.171-13.549h1.733c.636 0 1.117-.115 1.445-.347.327-.23.539-.577.635-1.04.116-.462.174-1.05.174-1.762 0-.597-.049-1.117-.145-1.56-.077-.462-.279-.828-.607-1.098-.327-.27-.837-.404-1.531-.404h-1.704v6.211Zm5.935 13.55 4.42-23.401h5.893l4.363 23.4h-4.767l-.78-4.94h-3.438l-.809 4.94h-4.882Zm6.153-8.032h2.485l-1.243-9.13-1.242 9.13Zm14.332 8.378c-1.772 0-3.178-.318-4.218-.953a5.31 5.31 0 0 1-2.167-2.716c-.423-1.175-.635-2.552-.635-4.131v-8.436c0-1.618.212-3.004.635-4.16.424-1.175 1.146-2.08 2.167-2.715 1.04-.636 2.446-.954 4.218-.954 1.733 0 3.081.289 4.044.867.982.558 1.676 1.348 2.08 2.369.405 1.02.607 2.195.607 3.524v2.022h-5.056v-2.34c0-.462-.029-.905-.086-1.328-.039-.424-.174-.77-.405-1.04-.231-.29-.626-.434-1.184-.434-.539 0-.944.145-1.214.433-.25.29-.414.655-.491 1.098-.057.424-.086.877-.086 1.358V47.74c0 .52.038 1.001.115 1.444.097.424.27.77.52 1.04.27.25.655.376 1.156.376.539 0 .924-.135 1.155-.404.232-.29.376-.655.434-1.098.057-.443.086-.896.086-1.358v-2.456h5.056v2.023c0 1.328-.202 2.523-.607 3.582-.385 1.04-1.069 1.868-2.051 2.484-.963.597-2.321.896-4.073.896Zm6.687-.347v-23.4h10.516v3.524h-5.345v5.807h4.074v3.582h-4.074v6.992h5.403v3.495h-10.574Z" fill="#000"/></mask><g mask="url(#a)"><path d="M38.914 53.922h-3.61a3.611 3.611 0 0 0 3.61 3.611v-3.61Zm0-19.558h3.612a3.611 3.611 0 0 0-3.612-3.61v3.61Zm-3.524 0h-3.61a3.611 3.611 0 0 0 3.611 3.611v-3.61Zm0-3.842V26.91a3.611 3.611 0 0 0-3.611 3.61h3.611Zm12.22 0h3.611a3.611 3.611 0 0 0-3.61-3.611v3.61Zm0 3.842v3.611a3.611 3.611 0 0 0 3.611-3.61h-3.61Zm-3.495 0v-3.61a3.611 3.611 0 0 0-3.612 3.61h3.611Zm0 19.558v3.611a3.611 3.611 0 0 0 3.61-3.61h-3.61Zm-1.59 0V34.364h-7.222v19.558h7.223Zm-3.61-23.169H35.39v7.222h3.524v-7.222ZM39 34.364v-3.842h-7.22v3.842H39Zm-3.61-.23h12.22V26.91H35.39v7.222Zm8.608-3.612v3.842h7.222v-3.842H44Zm3.611.231h-3.495v7.222h3.495v-7.222Zm-7.107 3.611v19.558h7.223V34.364h-7.223Zm3.611 15.947h-5.2v7.222h5.2v-7.222Zm2.667 3.611h-3.61a3.611 3.611 0 0 0 3.61 3.611v-3.61Zm0-23.4V26.91a3.611 3.611 0 0 0-3.61 3.61h3.61Zm13.232 2.398-2.956 2.075.052.071 2.904-2.146Zm-.116 8.32-2.877-2.183-.012.016 2.89 2.167Zm-1.762 1.358-1.55-3.262a3.611 3.611 0 0 0-1.925 4.246l3.475-.984Zm3.207 11.324v3.611a3.61 3.61 0 0 0 3.474-4.595l-3.474.984Zm-5.345 0-3.507.86a3.611 3.611 0 0 0 3.507 2.751v-3.61Zm-2.571-10.486 3.507-.86a3.611 3.611 0 0 0-3.507-2.752v3.612Zm-1.473 0v-3.612a3.611 3.611 0 0 0-3.612 3.612h3.612Zm0 10.486v3.611a3.611 3.611 0 0 0 3.61-3.61h-3.61Zm0-13.462H48.34a3.611 3.611 0 0 0 3.612 3.611V40.46Zm3.149-.376 1.9 3.07c.035-.02.069-.043.103-.065l-2.003-3.005Zm.837-1.126-3.412-1.181c-.01.026-.018.053-.027.08l3.44 1.1Zm-3.986-4.97v-3.61a3.611 3.611 0 0 0-3.612 3.61h3.612Zm-1.56 19.934v-23.4H43.17v23.4h7.223ZM46.78 34.133h6.443v-7.222H46.78v7.222Zm6.443 0c1.33 0 2.33.148 3.064.368l2.076-6.918c-1.578-.473-3.312-.672-5.14-.672v7.222Zm3.064.368c.455.136.643.314.77.494l5.91-4.15c-1.144-1.63-2.747-2.705-4.604-3.262l-2.076 6.918Zm.82.565c.021.028.276.416.276 1.638h7.222c0-2.052-.4-4.187-1.69-5.93l-5.807 4.292Zm.276 1.638c0 .778-.063 1.385-.158 1.846L64.301 40c.214-1.041.305-2.149.305-3.297h-7.222Zm-.158 1.846c-.056.272-.138.418-.206.507l5.754 4.365a8.405 8.405 0 0 0 1.527-3.42l-7.075-1.452Zm-.218.523c.028-.037-.044.083-.422.263l3.098 6.523c1.163-.552 2.266-1.337 3.102-2.452l-5.778-4.334Zm-2.348 4.509 3.207 11.324 6.95-1.968-3.207-11.324-6.95 1.968Zm6.682 6.73h-5.345v7.221h5.345v-7.222Zm-1.838 2.75-2.57-10.486-7.015 1.72 2.57 10.486 7.015-1.72Zm-6.078-13.238h-1.473v7.223h1.473v-7.223Zm-5.085 3.612v10.486h7.223V43.436H48.34Zm3.612 6.875H46.78v7.222h5.172v-7.222Zm0-6.24h1.444v-7.222h-1.444v7.222Zm1.444 0c1.07 0 2.4-.17 3.605-.916L53.2 37.014c.211-.13.366-.168.394-.175.027-.005-.03.01-.198.01v7.222Zm3.708-.982a5.678 5.678 0 0 0 2.274-3.03l-6.88-2.202a1.556 1.556 0 0 1 .599-.777l4.007 6.009Zm2.247-2.95c.338-.978.458-1.994.458-2.973h-7.222c0 .409-.053.586-.061.61l6.825 2.363Zm.458-2.973c0-1.375-.24-2.947-1.139-4.319l-6.041 3.959c-.09-.137-.097-.21-.084-.15.015.062.042.222.042.51h7.222Zm-1.139-4.319c-1.311-2.001-3.457-2.47-5.043-2.47V37.6c.172 0 .085.027-.14-.066a1.951 1.951 0 0 1-.858-.728l6.041-3.959Zm-5.043-2.47h-1.675V37.6h1.675v-7.222Zm-5.287 3.612v6.471h7.223v-6.471H48.34Zm11.747 19.933-3.548-.67a3.61 3.61 0 0 0 3.548 4.281v-3.61Zm4.42-23.4V26.91a3.611 3.611 0 0 0-3.548 2.94l3.548.67Zm5.894 0 3.55-.662a3.611 3.611 0 0 0-3.55-2.95v3.612Zm4.362 23.4v3.611a3.611 3.611 0 0 0 3.55-4.272l-3.55.661Zm-4.767 0-3.567.564a3.611 3.611 0 0 0 3.567 3.047v-3.61Zm-.78-4.94 3.567-.563a3.611 3.611 0 0 0-3.567-3.048v3.611Zm-3.438 0v-3.61a3.611 3.611 0 0 0-3.563 3.027l3.563.583Zm-.809 4.94v3.611a3.611 3.611 0 0 0 3.564-3.027l-3.564-.584Zm1.272-8.03-3.579-.488a3.611 3.611 0 0 0 3.579 4.098v-3.61Zm2.484 0v3.61a3.611 3.611 0 0 0 3.578-4.098l-3.578.487Zm-1.242-9.13 3.578-.487a3.611 3.611 0 0 0-7.156 0l3.578.487Zm-3.848 17.83 4.42-23.4-7.096-1.34-4.42 23.4 7.096 1.34Zm.872-20.459h5.894v-7.222h-5.894v7.222Zm2.344-2.95 4.362 23.401 7.1-1.323-4.362-23.4-7.1 1.323Zm7.912 19.128h-4.767v7.222h4.767v-7.222Zm-1.2 3.048-.78-4.94-7.134 1.126.78 4.94 7.134-1.126Zm-4.347-7.988H65.78v7.222h3.438v-7.222Zm-7 3.029-.81 4.94 7.128 1.167.809-4.94-7.127-1.167Zm2.754 1.912h-4.882v7.222h4.882v-7.222Zm1.272-.809h2.484V42.28h-2.484v7.222Zm6.062-4.098-1.242-9.129-7.156.974 1.242 9.129 7.156-.974Zm-8.398-9.129-1.243 9.13 7.157.973 1.242-9.129-7.156-.974Zm10.331 17.647h-3.61a3.611 3.611 0 0 0 3.61 3.611v-3.61Zm0-23.4V26.91a3.611 3.611 0 0 0-3.61 3.61h3.61Zm10.69.78-1.503 3.284.046.02 1.457-3.304Zm2.397 2.398L83.996 35.1l.01.021 3.318-1.422Zm0 17.016 3.329 1.4.008-.02-3.337-1.38Zm-2.397 2.426-1.503-3.283-.021.01 1.523 3.273Zm-5.518-2.802h-3.612a3.611 3.611 0 0 0 3.612 3.611V50.34Zm3.148-1.387-3.535-.736c-.01.047-.018.095-.026.143l3.562.593Zm-.028-13.606-3.522.8c.012.05.024.1.038.15l3.484-.95Zm-3.12-1.214v-3.611a3.611 3.611 0 0 0-3.612 3.611h3.612Zm-1.56 19.79V30.521h-7.223v23.4h7.223Zm-3.612-19.79h5.923v-7.222h-5.922v7.222Zm5.923 0c1.812 0 2.806.243 3.264.453l3.005-6.568c-1.814-.83-3.998-1.107-6.27-1.107v7.222Zm3.31.474c.332.146.439.286.526.494l6.657-2.803c-.837-1.987-2.33-3.445-4.27-4.3l-2.913 6.609Zm.535.515c.2.468.402 1.339.402 2.796h7.222c0-2.01-.261-3.951-.986-5.64l-6.638 2.844Zm.402 2.796v8.493h7.222v-8.493h-7.222Zm0 8.493c0 1.474-.2 2.395-.42 2.924l6.674 2.761c.706-1.705.968-3.654.968-5.685h-7.222Zm-.41 2.903c-.093.22-.215.38-.573.545l3.005 6.567c1.915-.876 3.392-2.333 4.224-4.31l-6.657-2.802Zm-.594.554c-.43.2-1.393.443-3.185.443v7.222c2.252 0 4.427-.276 6.233-1.117l-3.048-6.547Zm-3.185.443h-5.98v7.222h5.98v-7.222Zm-.81 3.64h.81V46.73h-.81v7.222Zm.81 0c.96 0 2.437-.107 3.707-.953l-4.006-6.01c.175-.116.325-.183.422-.22.097-.037.16-.05.175-.053.02-.005-.065.014-.298.014v7.222Zm3.707-.953c1.285-.856 1.976-2.14 2.195-3.451l-7.124-1.187c.026-.157.094-.406.264-.683.174-.286.407-.52.659-.688l4.006 6.009Zm2.168-3.308c.164-.788.22-1.633.22-2.47h-7.222c0 .55-.04.86-.069.997l7.07 1.473Zm.22-2.47V37.022h-7.222V47.22h7.222Zm0-10.198c0-.852-.066-1.767-.3-2.626l-6.968 1.9c-.006-.02.008.024.022.159a5.6 5.6 0 0 1 .024.567h7.222Zm-.263-2.476c-.3-1.317-1.096-2.538-2.432-3.28l-3.507 6.313a2.327 2.327 0 0 1-.753-.674 2.121 2.121 0 0 1-.35-.758l7.042-1.6Zm-2.432-3.28c-1.185-.66-2.522-.744-3.43-.744v7.222a3.787 3.787 0 0 1 .384.02c.006.001-.033-.005-.105-.028a1.977 1.977 0 0 1-.356-.157l3.507-6.314Zm-3.43-.744h-.78v7.222h.78v-7.222Zm-4.39 3.611V50.34h7.222V34.133h-7.222Zm12.478 19.79h-3.611a3.611 3.611 0 0 0 3.61 3.61v-3.61Zm0-23.401V26.91a3.611 3.611 0 0 0-3.611 3.61h3.61Zm10.516 0h3.611a3.611 3.611 0 0 0-3.612-3.611v3.61Zm0 3.525v3.61a3.611 3.611 0 0 0 3.611-3.61h-3.612Zm-5.345 0v-3.612a3.611 3.611 0 0 0-3.611 3.612h3.611Zm0 5.806h-3.611a3.611 3.611 0 0 0 3.611 3.611v-3.61Zm4.073 0h3.612a3.612 3.612 0 0 0-3.612-3.61v3.61Zm0 3.583v3.61a3.611 3.611 0 0 0 3.612-3.61H97.52Zm-4.073 0v-3.612a3.611 3.611 0 0 0-3.611 3.612h3.611Zm0 6.99h-3.611a3.611 3.611 0 0 0 3.611 3.612v-3.611Zm5.402 0h3.611a3.61 3.61 0 0 0-3.61-3.61v3.61Zm0 3.496v3.611a3.61 3.61 0 0 0 3.611-3.61h-3.61Zm-6.962 0v-23.4h-7.222v23.4h7.222Zm-3.611-19.789h10.516v-7.222H88.275v7.222Zm6.904-3.611v3.525h7.223v-3.525H95.18Zm3.611-.087h-5.344v7.223h5.344v-7.223Zm-8.955 3.612v5.806h7.222v-5.806h-7.222Zm3.611 9.417h4.073v-7.222h-4.073v7.222Zm.462-3.61v3.582h7.223v-3.583h-7.223Zm3.611-.03h-4.073v7.223h4.073v-7.223Zm-7.684 3.612v6.99h7.222v-6.99h-7.222Zm3.611 10.602h5.402v-7.222h-5.402v7.222Zm1.791-3.611v3.495h7.222v-3.495h-7.222Zm3.611-.116H88.276v7.222h10.573v-7.222Zm-.54 3.611h-3.612a3.611 3.611 0 0 0 3.611 3.611v-3.61Zm0-23.4V26.91a3.611 3.611 0 0 0-3.612 3.61h3.611Zm13.23 2.398-2.955 2.075.051.071 2.904-2.146Zm-.115 8.32-2.877-2.183-.012.016 2.889 2.167Zm-1.762 1.358-1.55-3.262a3.612 3.612 0 0 0-1.925 4.246l3.475-.984Zm3.206 11.324v3.611a3.612 3.612 0 0 0 3.475-4.595l-3.475.984Zm-5.344 0-3.508.86a3.613 3.613 0 0 0 3.508 2.751v-3.61Zm-2.571-10.486 3.507-.86a3.611 3.611 0 0 0-3.507-2.752v3.612Zm-1.474 0v-3.612a3.611 3.611 0 0 0-3.61 3.612h3.61Zm0 10.486v3.611a3.61 3.61 0 0 0 3.611-3.61h-3.611Zm0-13.462h-3.61a3.611 3.611 0 0 0 3.61 3.611V40.46Zm3.149-.376 1.901 3.07c.034-.02.069-.043.102-.065l-2.003-3.005Zm.838-1.126-3.412-1.181a1.19 1.19 0 0 0-.027.08l3.439 1.1Zm-3.987-4.97v-3.61a3.611 3.611 0 0 0-3.61 3.61h3.61Zm-1.56 19.934v-23.4h-7.222v23.4h7.222Zm-3.61-19.789h6.442v-7.222h-6.443v7.222Zm6.442 0c1.329 0 2.33.148 3.064.368l2.075-6.918c-1.577-.473-3.311-.672-5.139-.672v7.222Zm3.064.368c.454.136.642.314.769.494l5.911-4.15c-1.145-1.63-2.748-2.705-4.605-3.262l-2.075 6.918Zm.82.565c.021.028.276.416.276 1.638h7.222c0-2.052-.401-4.187-1.69-5.93l-5.808 4.292Zm.276 1.638c0 .778-.063 1.385-.158 1.846L115.828 40c.214-1.041.305-2.149.305-3.297h-7.222Zm-.158 1.846c-.056.272-.138.418-.206.507l5.754 4.365a8.395 8.395 0 0 0 1.527-3.42l-7.075-1.452Zm-.218.523c.028-.037-.044.083-.423.263l3.099 6.523c1.162-.552 2.265-1.337 3.102-2.452l-5.778-4.334Zm-2.348 4.509 3.207 11.324 6.949-1.968-3.207-11.324-6.949 1.968Zm6.681 6.73h-5.344v7.221h5.344v-7.222Zm-1.837 2.75-2.571-10.486-7.015 1.72 2.571 10.486 7.015-1.72Zm-6.078-13.238h-1.474v7.223h1.474v-7.223Zm-5.085 3.612v10.486h7.222V43.436h-7.222Zm3.611 6.875h-5.17v7.222h5.17v-7.222Zm0-6.24h1.445V36.85h-1.445v7.222Zm1.445 0c1.07 0 2.4-.17 3.605-.916l-3.802-6.141a1.35 1.35 0 0 1 .395-.175c.026-.005-.03.01-.198.01v7.222Zm3.707-.982a5.674 5.674 0 0 0 2.274-3.03l-6.878-2.202a1.56 1.56 0 0 1 .598-.777l4.006 6.009Zm2.248-2.95c.338-.978.458-1.994.458-2.973h-7.222c0 .409-.053.586-.061.61l6.825 2.363Zm.458-2.973c0-1.375-.24-2.947-1.139-4.319l-6.041 3.959c-.09-.137-.098-.21-.084-.15.015.062.042.222.042.51h7.222Zm-1.139-4.319c-1.312-2.001-3.457-2.47-5.043-2.47V37.6c.171 0 .084.027-.14-.066a1.95 1.95 0 0 1-.858-.728l6.041-3.959Zm-5.043-2.47h-1.676V37.6h1.676v-7.222Zm-5.287 3.612v6.471h7.222V33.99h-7.222Zm17.694 17.102-3.286 1.499.01.022 3.276-1.52Zm-.838-4.247-.537-3.57a3.611 3.611 0 0 0-3.072 3.69l3.609-.12Zm4.42-.664 3.611-.07a3.612 3.612 0 0 0-4.148-3.501l.537 3.571Zm.26 2.427-3.503.876c.008.034.017.068.027.101l3.476-.977Zm.694 1.329-2.464 2.64.086.077 2.378-2.717Zm2.137-.145-3.263-1.546a3.816 3.816 0 0 0-.065.145l3.328 1.401Zm-.433-3.582-2.978 2.042a.858.858 0 0 0 .028.04l2.95-2.082Zm-1.878-2.022-2.372 2.722a.565.565 0 0 0 .028.024l2.344-2.746Zm-2.022-1.763 2.372-2.722a.992.992 0 0 0-.037-.032l-2.335 2.754Zm-2.253-2.542-3.069 1.903.045.072 3.024-1.975Zm.866-8.089 2.394 2.704.024-.022-2.418-2.682Zm7.8-.953-1.774 3.145.034.019 1.74-3.164Zm1.734 1.675-3.157 1.754.06.104 3.097-1.858Zm.809 2.167-3.558.623.02.103 3.538-.726Zm.26 2.167.442 3.584a3.61 3.61 0 0 0 3.167-3.684l-3.609.1Zm-4.449.549-3.61.1a3.611 3.611 0 0 0 4.052 3.484l-.442-3.584Zm-.145-1.792-3.589.4c.006.05.012.1.02.15l3.569-.55Zm-.404-1.184-2.912 2.136.072.095 2.84-2.23Zm-2.051.173-3.136-1.791a2.719 2.719 0 0 0-.063.116l3.199 1.675Zm.289 3.352-2.925 2.118c.027.038.056.075.085.113l2.84-2.231Zm1.646 1.704-2.394 2.703a.05.05 0 0 0 .008.007l2.386-2.71Zm1.936 1.704-2.387 2.71c.017.015.033.03.05.043l2.337-2.752Zm2.571 2.947-3.053 1.929.024.038 3.029-1.967Zm.318 7.078 3.144 1.777.016-.029-3.16-1.748Zm-2.138 2.109-1.77-3.147-.029.016 1.799 3.131Zm-3.236-2.831c-1.054 0-1.656-.19-1.979-.36l-3.379 6.383c1.641.869 3.486 1.2 5.358 1.2v-7.223Zm-1.979-.36c-.235-.125-.445-.31-.639-.728l-6.551 3.042c.809 1.74 2.081 3.153 3.811 4.069l3.379-6.384Zm-.629-.705c-.236-.519-.465-1.42-.514-2.869l-7.218.24c.067 2.019.396 3.949 1.161 5.626l6.571-2.997Zm-3.586.822 4.42-.664-1.074-7.142-4.42.664 1.074 7.142Zm.273-4.166c.021 1.137.12 2.247.367 3.233l7.007-1.751c-.062-.247-.137-.754-.153-1.62l-7.221.138Zm.394 3.335c.252.897.721 2.072 1.706 2.992l4.928-5.28a1.7 1.7 0 0 1 .347.435c.027.05.008.03-.028-.102l-6.953 1.955Zm1.792 3.07a5.22 5.22 0 0 0 3.475 1.297V46.73a2.017 2.017 0 0 1 1.281.489l-4.756 5.435Zm3.475 1.297c.648 0 1.499-.105 2.35-.554a4.413 4.413 0 0 0 2.018-2.205l-6.656-2.802a2.807 2.807 0 0 1 1.267-1.38c.505-.267.913-.281 1.021-.281v7.222Zm4.304-2.614a6.276 6.276 0 0 0 .607-2.701h-7.222a.962.962 0 0 1 .088-.39l6.527 3.091Zm.607-2.701c0-1.556-.381-3.131-1.354-4.51l-5.9 4.165c-.015-.02-.012-.026-.002.008.011.039.034.143.034.337h7.222Zm-1.326-4.47c-.682-.994-1.542-1.898-2.511-2.726l-4.689 5.493c.61.52 1.002.965 1.244 1.318l5.956-4.084Zm-2.483-2.702-2.023-1.762-4.744 5.445 2.022 1.762 4.745-5.445Zm-2.06-1.794a8.128 8.128 0 0 1-1.565-1.763l-6.047 3.95a15.344 15.344 0 0 0 2.942 3.322l4.67-5.51Zm-1.519-1.69c-.167-.27-.354-.756-.354-1.651h-7.222c0 1.917.41 3.798 1.438 5.456l6.138-3.806Zm-.354-1.651c0-1.243.34-1.65.545-1.832l-4.787-5.408c-2.145 1.899-2.98 4.515-2.98 7.24h7.222Zm.569-1.854c.343-.309.992-.66 2.378-.66v-7.222c-2.659 0-5.207.709-7.214 2.518l4.836 5.364Zm2.378-.66c.893 0 1.211.159 1.23.17l3.549-6.29c-1.483-.837-3.168-1.102-4.779-1.102v7.222Zm1.264.189c.242.133.297.229.317.265l6.314-3.507c-.751-1.35-1.851-2.372-3.15-3.086l-3.481 6.328Zm.377.37c.178.295.291.599.348.93l7.115-1.244a9.887 9.887 0 0 0-1.27-3.403l-6.193 3.716Zm.368 1.034c.116.566.175 1.078.188 1.541l7.219-.2a16.056 16.056 0 0 0-.332-2.793l-7.075 1.452Zm3.355-2.143-4.448.549.884 7.168 4.449-.55-.885-7.167Zm-.397 4.032a18.107 18.107 0 0 0-.185-2.24l-7.138 1.099c.048.309.087.748.104 1.342l7.219-.2Zm-.165-2.09c-.096-.863-.362-2.008-1.154-3.016l-5.679 4.462a1.975 1.975 0 0 1-.318-.566c-.035-.105-.034-.143-.027-.082l7.178-.797Zm-1.081-2.92c-1.054-1.438-2.605-1.91-3.894-1.91V37.6a2.21 2.21 0 0 1-.88-.2 2.616 2.616 0 0 1-1.05-.843l5.824-4.27Zm-3.894-1.91c-1.724 0-3.304.851-4.205 2.427l6.271 3.583a2.44 2.44 0 0 1-.912.894 2.37 2.37 0 0 1-1.154.319v-7.222Zm-4.268 2.543a6.193 6.193 0 0 0-.73 2.889h7.222c0 .117-.016.222-.038.308a.676.676 0 0 1-.057.154l-6.397-3.351Zm-.73 2.889c0 1.43.339 2.939 1.293 4.256l5.849-4.236a.719.719 0 0 1 .094.178c.004.014-.014-.043-.014-.198h-7.222Zm1.378 4.369c.592.753 1.303 1.477 2.092 2.176l4.789-5.406c-.559-.495-.946-.907-1.202-1.233l-5.679 4.463Zm2.1 2.183 1.935 1.705 4.773-5.42-1.935-1.705-4.773 5.42Zm1.985 1.747a9.265 9.265 0 0 1 1.855 2.123l6.106-3.857a16.474 16.474 0 0 0-3.287-3.771l-4.674 5.505Zm1.879 2.16c.252.388.487 1.023.487 2.108h7.222c0-2.151-.478-4.232-1.651-6.04l-6.058 3.933Zm.487 2.108c0 .525-.114.919-.3 1.256l6.32 3.496c.815-1.473 1.202-3.082 1.202-4.752h-7.222Zm-.284 1.227c-.163.288-.389.527-.764.739l3.54 6.294a9.103 9.103 0 0 0 3.512-3.479l-6.288-3.554Zm-.793.755c-.258.148-.69.3-1.437.3v7.222c1.758 0 3.483-.368 5.035-1.26l-3.598-6.262Zm4.303 3.564h-3.611a3.61 3.61 0 0 0 3.611 3.611v-3.61Zm0-23.4V26.91a3.61 3.61 0 0 0-3.611 3.61h3.611Zm11.324.809-1.848 3.102.05.03 1.798-3.132Zm2.023 2.311-3.313 1.438.01.023 3.303-1.46Zm-.232 7.829 3.052 1.93.018-.027-3.07-1.903Zm-7.944 2.513v-3.61a3.611 3.611 0 0 0-3.611 3.61h3.611Zm0 9.938v3.611a3.611 3.611 0 0 0 3.611-3.61h-3.611Zm0-13.549h-3.611a3.611 3.611 0 0 0 3.611 3.611v-3.61Zm3.813-1.386-3.503-.876a3.269 3.269 0 0 0-.032.14l3.535.736Zm.029-3.323-3.562.594c.01.058.021.116.033.173l3.529-.767Zm-3.842-1.502v-3.611a3.611 3.611 0 0 0-3.611 3.611h3.611Zm-1.56 19.76v-23.4h-7.222v23.4h7.222Zm-3.611-19.789h7.858v-7.222h-7.858v7.222Zm7.858 0c.966 0 1.429.187 1.618.3l3.697-6.204c-1.621-.966-3.47-1.318-5.315-1.318v7.222Zm1.668.33c.185.106.353.259.508.617l6.625-2.875c-.73-1.684-1.911-3.072-3.536-4.005l-3.597 6.262Zm.518.64c.186.42.356 1.114.356 2.208h7.222c0-1.795-.272-3.546-.973-5.13l-6.605 2.922Zm.356 2.208c0 1.503-.264 2.112-.354 2.257l6.139 3.806c1.104-1.78 1.437-3.945 1.437-6.063h-7.222Zm-.336 2.23c-.181.285-.355.41-.594.495l2.437 6.799c1.803-.646 3.247-1.831 4.26-3.433l-6.103-3.862Zm-.594.495c-.569.204-1.293.337-2.219.337v7.223c1.617 0 3.184-.233 4.656-.761l-2.437-6.799Zm-2.219.337h-2.08v7.223h2.08v-7.223Zm-5.691 3.611v9.938h7.222v-9.938h-7.222Zm3.611 6.327h-5.171v7.222h5.171v-7.222Zm0-6.327h1.733v-7.222h-1.733v7.222Zm1.733 0c.978 0 2.328-.16 3.527-1.007l-4.165-5.9c.287-.203.53-.277.633-.302.101-.024.115-.013.005-.013v7.222Zm3.527-1.007c1.205-.85 1.841-2.066 2.089-3.254l-7.071-1.473c.023-.11.081-.308.223-.54.147-.24.35-.461.594-.634l4.165 5.9Zm2.057-3.115c.213-.852.281-1.76.281-2.638h-7.222c0 .548-.048.815-.066.887l7.007 1.751Zm.281-2.638c0-.779-.062-1.567-.227-2.327l-7.058 1.534c.028.127.063.378.063.793h7.222Zm-.194-2.153c-.204-1.226-.8-2.409-1.873-3.292l-4.591 5.575a1.958 1.958 0 0 1-.468-.564 1.713 1.713 0 0 1-.192-.532l7.124-1.187Zm-1.873-3.292c-1.273-1.049-2.789-1.228-3.827-1.228v7.222c.127 0 .104.014-.019-.019a2.017 2.017 0 0 1-.745-.4l4.591-5.575Zm-3.827-1.228h-1.704v7.222h1.704v-7.222Zm-5.315 3.611v6.211h7.222v-6.211h-7.222Zm9.546 19.76-3.548-.67a3.61 3.61 0 0 0 3.548 4.281v-3.61Zm4.42-23.4V26.91a3.61 3.61 0 0 0-3.548 2.94l3.548.67Zm5.893 0 3.55-.662a3.61 3.61 0 0 0-3.55-2.95v3.612Zm4.363 23.4v3.611a3.61 3.61 0 0 0 3.55-4.272l-3.55.661Zm-4.767 0-3.567.564a3.611 3.611 0 0 0 3.567 3.047v-3.61Zm-.78-4.94 3.567-.563a3.611 3.611 0 0 0-3.567-3.048v3.611Zm-3.438 0v-3.61a3.612 3.612 0 0 0-3.564 3.027l3.564.583Zm-.809 4.94v3.611a3.612 3.612 0 0 0 3.564-3.027l-3.564-.584Zm1.271-8.03-3.578-.488a3.613 3.613 0 0 0 3.578 4.098v-3.61Zm2.485 0v3.61a3.61 3.61 0 0 0 3.578-4.098l-3.578.487Zm-1.242-9.13 3.578-.487a3.611 3.611 0 0 0-7.157 0l3.579.487Zm-3.848 17.83 4.42-23.4-7.096-1.34-4.42 23.4 7.096 1.34Zm.872-20.459h5.893v-7.222h-5.893v7.222Zm2.344-2.95 4.362 23.401 7.1-1.323-4.363-23.4-7.099 1.323Zm7.912 19.128h-4.767v7.222h4.767v-7.222Zm-1.2 3.048-.78-4.94-7.134 1.126.78 4.94 7.134-1.126Zm-4.347-7.988h-3.438v7.222h3.438v-7.222Zm-7.002 3.028-.808 4.94 7.127 1.167.809-4.94-7.128-1.167Zm2.755 1.912h-4.882v7.222h4.882v-7.222Zm1.271-.809h2.485V42.28h-2.485v7.222Zm6.063-4.098-1.242-9.129-7.157.974 1.243 9.129 7.156-.974Zm-8.399-9.129-1.242 9.13 7.157.973 1.242-9.129-7.157-.974Zm12.45 17.04-1.95 3.04.067.042 1.883-3.081Zm-2.167-2.715-3.397 1.225a.139.139 0 0 1 .007.018l3.39-1.243Zm0-16.727 3.391 1.243.006-.018-3.397-1.225Zm2.167-2.715-1.883-3.082-.026.016 1.909 3.066Zm8.262-.087-1.857 3.096c.024.015.048.03.072.043l1.785-3.14Zm2.687 7.915v3.612a3.611 3.611 0 0 0 3.611-3.611h-3.611Zm-5.055 0h-3.612a3.611 3.611 0 0 0 3.612 3.612v-3.611Zm-.087-3.668-3.597.327a2.9 2.9 0 0 0 .019.16l3.578-.487Zm-.405-1.04-2.819 2.255c.025.032.051.064.078.095l2.741-2.35Zm-2.398 0-2.639-2.464c-.031.032-.06.065-.089.099l2.728 2.365Zm-.491 1.097-3.557-.618a2.897 2.897 0 0 0-.021.13l3.578.488Zm.029 13.81-3.558.618c.011.061.023.122.037.182l3.521-.8Zm.52 1.04-2.646 2.457c.061.065.124.128.189.189l2.457-2.647Zm2.311-.03 2.742 2.35c.027-.03.053-.062.078-.094l-2.82-2.255Zm.521-4.91v-3.612a3.612 3.612 0 0 0-3.612 3.611h3.612Zm5.055 0h3.611a3.611 3.611 0 0 0-3.611-3.612v3.611Zm-.607 5.604-3.373-1.288a.437.437 0 0 0-.013.034l3.386 1.254Zm-2.051 2.484 1.903 3.07.017-.01-1.92-3.06Zm-4.073-2.715c-1.391 0-2.063-.258-2.335-.424l-3.766 6.163c1.808 1.105 3.949 1.483 6.101 1.483v-7.222Zm-2.268-.382c-.347-.222-.569-.492-.726-.92l-6.781 2.487a8.92 8.92 0 0 0 3.607 4.512l3.9-6.079Zm-.72-.901c-.25-.694-.421-1.639-.421-2.906h-7.222c0 1.891.252 3.7.849 5.356l6.794-2.45Zm-.421-2.906v-8.436h-7.222v8.436h7.222Zm0-8.436c0-1.32.175-2.263.415-2.917l-6.781-2.486c-.608 1.657-.856 3.487-.856 5.403h7.222Zm.421-2.935c.16-.443.375-.686.679-.875l-3.818-6.131c-1.737 1.082-2.967 2.65-3.655 4.556l6.794 2.45Zm.653-.859c.272-.166.944-.424 2.335-.424v-7.222c-2.152 0-4.293.378-6.101 1.483l3.766 6.163Zm2.335-.424c1.405 0 2.011.247 2.187.352l3.715-6.193c-1.75-1.05-3.841-1.38-5.902-1.38v7.221Zm2.259.395c.29.165.416.327.508.56l6.715-2.66c-.717-1.81-1.978-3.226-3.653-4.178l-3.57 6.278Zm.508.56c.206.519.353 1.227.353 2.194h7.222c0-1.69-.257-3.331-.86-4.854l-6.715 2.66Zm.353 2.194v2.023h7.222v-2.023h-7.222Zm3.611-1.589h-5.055v7.223h5.055v-7.223Zm-1.444 3.611v-2.34h-7.223v2.34h7.223Zm0-2.34c0-.612-.039-1.218-.12-1.816l-7.156.976c.034.25.053.529.053.84h7.223Zm-.102-1.655c-.092-1.02-.449-2.12-1.259-3.064l-5.483 4.7a1.83 1.83 0 0 1-.451-.983l7.193-.653Zm-1.181-2.97c-1.208-1.509-2.92-1.788-4.004-1.788v7.222c-.013 0-.219.001-.526-.111a2.569 2.569 0 0 1-1.109-.81l5.639-4.512Zm-4.004-1.788c-1.162 0-2.68.323-3.853 1.58l5.28 4.929c-.635.68-1.343.713-1.427.713v-7.222Zm-3.942 1.68c-.751.866-1.151 1.87-1.32 2.844l7.115 1.237c-.015.089-.087.36-.337.649l-5.458-4.73Zm-1.341 2.975a13.725 13.725 0 0 0-.119 1.845h7.222c0-.338.02-.626.053-.87l-7.156-.975Zm-.119 1.845V47.74h7.222V36.733h-7.222Zm0 11.007c0 .696.051 1.387.168 2.063l7.116-1.237a4.913 4.913 0 0 1-.062-.826h-7.222Zm.205 2.245c.211.93.64 1.883 1.395 2.697l5.292-4.915c.255.274.337.534.356.617l-7.043 1.6Zm1.584 2.886c1.147 1.065 2.534 1.34 3.613 1.34V46.99c.077 0 .693.025 1.302.59l-4.915 5.292Zm3.613 1.34c1.042 0 2.688-.255 3.897-1.665l-5.483-4.7a2.568 2.568 0 0 1 1.086-.756c.292-.102.486-.101.5-.101v7.222Zm3.975-1.76c.722-.902 1.069-1.925 1.195-2.886l-7.162-.934c.01-.076.068-.367.328-.691l5.639 4.511Zm1.195-2.886a14.22 14.22 0 0 0 .117-1.825h-7.223c0 .311-.019.608-.056.89l7.162.935Zm.117-1.825v-2.456h-7.223v2.456h7.223Zm-3.611 1.155h5.055v-7.222h-5.055v7.222Zm1.444-3.61v2.022h7.222v-2.023h-7.222Zm0 2.022c0 .963-.146 1.71-.369 2.294l6.747 2.576c.586-1.535.844-3.175.844-4.87h-7.222Zm-.382 2.328c-.095.257-.243.466-.584.68l3.839 6.117c1.624-1.019 2.843-2.466 3.518-4.289l-6.773-2.508Zm-.568.67c-.159.098-.751.353-2.17.353v7.222c2.086 0 4.21-.342 5.976-1.437l-3.806-6.139Zm4.517 3.617h-3.611a3.611 3.611 0 0 0 3.611 3.611v-3.61Zm0-23.4V26.91a3.611 3.611 0 0 0-3.611 3.61h3.611Zm10.516 0h3.61a3.61 3.61 0 0 0-3.61-3.611v3.61Zm0 3.525v3.61a3.61 3.61 0 0 0 3.61-3.61h-3.61Zm-5.345 0v-3.612a3.611 3.611 0 0 0-3.611 3.612h3.611Zm0 5.806h-3.611a3.611 3.611 0 0 0 3.611 3.611v-3.61Zm4.074 0h3.611a3.611 3.611 0 0 0-3.611-3.61v3.61Zm0 3.583v3.61a3.611 3.611 0 0 0 3.611-3.61h-3.611Zm-4.074 0v-3.612a3.611 3.611 0 0 0-3.611 3.612h3.611Zm0 6.99h-3.611a3.611 3.611 0 0 0 3.611 3.612v-3.611Zm5.403 0h3.612a3.612 3.612 0 0 0-3.612-3.61v3.61Zm0 3.496v3.611a3.612 3.612 0 0 0 3.612-3.61h-3.612Zm-6.963 0v-23.4h-7.222v23.4h7.222Zm-3.611-19.789h10.516v-7.222h-10.516v7.222Zm6.905-3.611v3.525h7.221v-3.525h-7.221Zm3.611-.087h-5.345v7.223h5.345v-7.223Zm-8.956 3.612v5.806h7.222v-5.806h-7.222Zm3.611 9.417h4.074v-7.222h-4.074v7.222Zm.462-3.61v3.582h7.223v-3.583h-7.223Zm3.612-.03h-4.074v7.223h4.074v-7.223Zm-7.685 3.612v6.99h7.222v-6.99h-7.222Zm3.611 10.602h5.403v-7.222h-5.403v7.222Zm1.791-3.611v3.495h7.224v-3.495h-7.224Zm3.612-.116h-10.574v7.222h10.574v-7.222Z" fill="#FFAF2E"/></g></svg>